999
dxfrw 0.5.10
0
SECTION
2
HEADER
9
$ACADVER
1
AC1021
9
$HANDSEED
5
20000
9
$DWGCODEPAGE
3
ANSI_1252
9
$INSBASE
10
0
20
0
30
0
9
$EXTMIN
10
-16.097709907
20
-16.15
30
0
9
$EXTMAX
10
16.0970321426
20
15.873789385
30
0
9
$LIMMIN
10
0
20
0
9
$LIMMAX
10
420
20
297
9
$ORTHOMODE
70
0
9
$LTSCALE
40
1
9
$TEXTSTYLE
7
STANDARD
9
$CLAYER
8
0
9
$DIMASZ
40
2.5
9
$DIMLFAC
40
1
9
$DIMSCALE
40
1
9
$DIMEXO
40
0.625
9
$DIMEXE
40
1.25
9
$DIMTXT
40
2.5
9
$DIMTSZ
40
0
9
$DIMAUNIT
70
0
9
$DIMADEC
70
0
9
$DIMLUNIT
70
2
9
$DIMSTYLE
2
Standard
9
$DIMGAP
40
0.625
9
$DIMTIH
70
0
9
$LUNITS
70
2
9
$LUPREC
70
4
9
$AUNITS
70
0
9
$AUPREC
70
2
9
$SPLINESEGS
70
8
9
$PINSBASE
10
0
20
0
30
0
9
$PLIMMIN
10
0
20
0
9
$PLIMMAX
10
210
20
297
9
$INSUNITS
70
0
9
$PSVPSCALE
40
0
0
ENDSEC
0
SECTION
2
CLASSES
0
ENDSEC
0
SECTION
2
TABLES
0
TABLE
2
VPORT
5
8
330
0
100
AcDbSymbolTable
70
1
0
VPORT
5
31
330
2
100
AcDbSymbolTableRecord
100
AcDbViewportTableRecord
2
*ACTIVE
70
0
10
0
20
0
11
1
21
1
12
5.42883866217
22
5.42883866217
13
0
23
0
14
10
24
10
15
10
25
10
16
0
26
0
36
1
17
0
27
0
37
0
40
15.5993212191
41
1.66079295154
42
50
43
0
44
0
50
0
51
0
71
0
72
100
73
1
74
3
75
0
76
1
77
0
78
0
281
0
65
1
110
0
120
0
130
0
111
1
121
0
131
0
112
0
122
1
132
0
79
0
146
0
348
10020
60
7
61
5
292
1
282
1
141
0
142
0
63
250
421
3358443
0
ENDTAB
0
TABLE
2
LTYPE
5
5
330
0
100
AcDbSymbolTable
70
4
0
LTYPE
5
14
330
5
100
AcDbSymbolTableRecord
100
AcDbLinetypeTableRecord
2
ByBlock
70
0
3

72
65
73
0
40
0
0
LTYPE
5
15
330
5
100
AcDbSymbolTableRecord
100
AcDbLinetypeTableRecord
2
ByLayer
70
0
3

72
65
73
0
40
0
0
LTYPE
5
16
330
5
100
AcDbSymbolTableRecord
100
AcDbLinetypeTableRecord
2
Continuous
70
0
3
Solid line
72
65
73
0
40
0
0
LTYPE
5
32
330
5
100
AcDbSymbolTableRecord
100
AcDbLinetypeTableRecord
2
DOT
70
0
3
Dot . . . . . . . . . . . . . . . . . . . . . .
72
65
73
2
40
6.35
49
0
74
0
49
-6.35
74
0
0
LTYPE
5
33
330
5
100
AcDbSymbolTableRecord
100
AcDbLinetypeTableRecord
2
DOT2
70
0
3
Dot (.5x) .....................................
72
65
73
2
40
3.175
49
0
74
0
49
-3.175
74
0
0
LTYPE
5
34
330
5
100
AcDbSymbolTableRecord
100
AcDbLinetypeTableRecord
2
DOTX2
70
0
3
Dot (2x) .  .  .  .  .  .  .  .  .  .  .  .  .
72
65
73
2
40
12.7
49
0
74
0
49
-12.7
74
0
0
LTYPE
5
35
330
5
100
AcDbSymbolTableRecord
100
AcDbLinetypeTableRecord
2
DASHED
70
0
3
Dot . . . . . . . . . . . . . . . . . . . . . .
72
65
73
2
40
19.05
49
12.7
74
0
49
-6.35
74
0
0
LTYPE
5
36
330
5
100
AcDbSymbolTableRecord
100
AcDbLinetypeTableRecord
2
DASHED2
70
0
3
Dashed (.5x) _ _ _ _ _ _ _ _ _ _ _ _ _ _ _ _ _
72
65
73
2
40
9.525
49
6.35
74
0
49
-3.175
74
0
0
LTYPE
5
37
330
5
100
AcDbSymbolTableRecord
100
AcDbLinetypeTableRecord
2
DASHEDX2
70
0
3
Dashed (2x) ____  ____  ____  ____  ____  ___
72
65
73
2
40
38.1
49
25.4
74
0
49
-12.7
74
0
0
LTYPE
5
38
330
5
100
AcDbSymbolTableRecord
100
AcDbLinetypeTableRecord
2
DASHDOT
70
0
3
Dash dot __ . __ . __ . __ . __ . __ . __ . __
72
65
73
4
40
25.4
49
12.7
74
0
49
-6.35
74
0
49
0
74
0
49
-6.35
74
0
0
LTYPE
5
39
330
5
100
AcDbSymbolTableRecord
100
AcDbLinetypeTableRecord
2
DASHDOT2
70
0
3
Dash dot (.5x) _._._._._._._._._._._._._._._.
72
65
73
4
40
12.7
49
6.35
74
0
49
-3.175
74
0
49
0
74
0
49
-3.175
74
0
0
LTYPE
5
3A
330
5
100
AcDbSymbolTableRecord
100
AcDbLinetypeTableRecord
2
DASHDOTX2
70
0
3
Dash dot (2x) ____  .  ____  .  ____  .  ___
72
65
73
4
40
50.8
49
25.4
74
0
49
-12.7
74
0
49
0
74
0
49
-12.7
74
0
0
LTYPE
5
3B
330
5
100
AcDbSymbolTableRecord
100
AcDbLinetypeTableRecord
2
DIVIDE
70
0
3
Divide ____ . . ____ . . ____ . . ____ . . ____
72
65
73
6
40
31.75
49
12.7
74
0
49
-6.35
74
0
49
0
74
0
49
-6.35
74
0
49
0
74
0
49
-6.35
74
0
0
LTYPE
5
3C
330
5
100
AcDbSymbolTableRecord
100
AcDbLinetypeTableRecord
2
DIVIDE2
70
0
3
Divide (.5x) __..__..__..__..__..__..__..__.._
72
65
73
6
40
15.875
49
6.35
74
0
49
-3.175
74
0
49
0
74
0
49
-3.175
74
0
49
0
74
0
49
-3.175
74
0
0
LTYPE
5
3D
330
5
100
AcDbSymbolTableRecord
100
AcDbLinetypeTableRecord
2
DIVIDEX2
70
0
3
Divide (2x) ________  .  .  ________  .  .  _
72
65
73
6
40
63.5
49
25.4
74
0
49
-12.7
74
0
49
0
74
0
49
-12.7
74
0
49
0
74
0
49
-12.7
74
0
0
LTYPE
5
3E
330
5
100
AcDbSymbolTableRecord
100
AcDbLinetypeTableRecord
2
BORDER
70
0
3
Border __ __ . __ __ . __ __ . __ __ . __ __ .
72
65
73
6
40
44.45
49
12.7
74
0
49
-6.35
74
0
49
12.7
74
0
49
-6.35
74
0
49
0
74
0
49
-6.35
74
0
0
LTYPE
5
3F
330
5
100
AcDbSymbolTableRecord
100
AcDbLinetypeTableRecord
2
BORDER2
70
0
3
Border (.5x) __.__.__.__.__.__.__.__.__.__.__.
72
65
73
6
40
22.225
49
6.35
74
0
49
-3.175
74
0
49
6.35
74
0
49
-3.175
74
0
49
0
74
0
49
-3.175
74
0
0
LTYPE
5
40
330
5
100
AcDbSymbolTableRecord
100
AcDbLinetypeTableRecord
2
BORDERX2
70
0
3
Border (2x) ____  ____  .  ____  ____  .  ___
72
65
73
6
40
88.9
49
25.4
74
0
49
-12.7
74
0
49
25.4
74
0
49
-12.7
74
0
49
0
74
0
49
-12.7
74
0
0
LTYPE
5
41
330
5
100
AcDbSymbolTableRecord
100
AcDbLinetypeTableRecord
2
CENTER
70
0
3
Center ____ _ ____ _ ____ _ ____ _ ____ _ ____
72
65
73
4
40
50.8
49
31.75
74
0
49
-6.35
74
0
49
6.35
74
0
49
-6.35
74
0
0
LTYPE
5
42
330
5
100
AcDbSymbolTableRecord
100
AcDbLinetypeTableRecord
2
CENTER2
70
0
3
Center (.5x) ___ _ ___ _ ___ _ ___ _ ___ _ ___
72
65
73
4
40
28.575
49
19.05
74
0
49
-3.175
74
0
49
3.175
74
0
49
-3.175
74
0
0
LTYPE
5
43
330
5
100
AcDbSymbolTableRecord
100
AcDbLinetypeTableRecord
2
CENTERX2
70
0
3
Center (2x) ________  __  ________  __  _____
72
65
73
4
40
101.6
49
63.5
74
0
49
-12.7
74
0
49
12.7
74
0
49
-12.7
74
0
0
ENDTAB
0
TABLE
2
LAYER
5
2
330
0
100
AcDbSymbolTable
70
1
0
LAYER
5
10
330
2
100
AcDbSymbolTableRecord
100
AcDbLayerTableRecord
2
0
70
0
62
7
6
CONTINUOUS
370
-3
390
F
0
ENDTAB
0
TABLE
2
STYLE
5
3
330
0
100
AcDbSymbolTable
70
3
0
STYLE
5
44
330
2
100
AcDbSymbolTableRecord
100
AcDbTextStyleTableRecord
2
Standard
70
0
40
0
41
1
50
0
71
0
42
1
3
txt
4

0
ENDTAB
0
TABLE
2
VIEW
5
6
330
0
100
AcDbSymbolTable
70
0
0
ENDTAB
0
TABLE
2
UCS
5
7
330
0
100
AcDbSymbolTable
70
0
0
ENDTAB
0
TABLE
2
APPID
5
9
330
0
100
AcDbSymbolTable
70
1
0
APPID
5
12
330
9
100
AcDbSymbolTableRecord
100
AcDbRegAppTableRecord
2
ACAD
70
0
0
ENDTAB
0
TABLE
2
DIMSTYLE
5
A
330
0
100
AcDbSymbolTable
70
1
100
AcDbDimStyleTable
71
1
0
DIMSTYLE
105
45
330
A
100
AcDbSymbolTableRecord
100
AcDbDimStyleTableRecord
2
Standard
70
0
40
1
41
2.5
42
0.625
43
0.38
44
1.25
45
0
46
0
47
0
48
0
140
2.5
141
0.09
142
0
143
25.4
144
1
145
0
146
1
147
0.625
148
0
71
0
72
0
73
0
74
1
75
0
76
0
77
0
78
0
79
0
170
0
171
2
172
0
173
0
174
0
175
0
176
0
177
0
178
0
179
0
271
4
272
4
273
2
274
2
275
0
276
0
277
2
278
46
279
0
280
0
281
0
282
0
283
1
284
0
285
0
286
0
288
0
289
3
340
Standard
341

371
-2
372
-2
0
ENDTAB
0
TABLE
2
BLOCK_RECORD
5
1
330
0
100
AcDbSymbolTable
70
2
0
BLOCK_RECORD
5
1F
330
1
100
AcDbSymbolTableRecord
100
AcDbBlockTableRecord
2
*Model_Space
70
0
280
1
281
0
0
BLOCK_RECORD
5
1E
330
1
100
AcDbSymbolTableRecord
100
AcDbBlockTableRecord
2
*Paper_Space
70
0
280
1
281
0
0
BLOCK_RECORD
5
46
330
1
100
AcDbSymbolTableRecord
100
AcDbBlockTableRecord
2
GEAR
70
0
280
1
281
0
0
ENDTAB
0
ENDSEC
0
SECTION
2
BLOCKS
0
BLOCK
5
20
330
1F
100
AcDbEntity
8
0
100
AcDbBlockBegin
2
*Model_Space
70
0
10
0
20
0
30
0
3
*Model_Space
1

0
ENDBLK
5
21
330
1F
100
AcDbEntity
8
0
100
AcDbBlockEnd
0
BLOCK
5
1C
330
1B
100
AcDbEntity
8
0
100
AcDbBlockBegin
2
*Paper_Space
70
0
10
0
20
0
30
0
3
*Paper_Space
1

0
ENDBLK
5
1D
330
1F
100
AcDbEntity
8
0
100
AcDbBlockEnd
0
BLOCK
5
47
330
46
100
AcDbEntity
8
0
100
AcDbBlockBegin
2
GEAR
70
0
10
0
20
0
3
GEAR
1

0
LINE
5
49
100
AcDbEntity
8
0
6
ByLayer
62
0
370
-1
100
AcDbLine
10
11
20
0
11
13.3906198462
21
0
0
ARC
5
4A
100
AcDbEntity
8
0
6
ByLayer
62
0
370
-1
100
AcDbCircle
10
-1.09423581307e-12
20
1.11910480882e-13
40
11
100
AcDbArc
50
-11.9701912323
51
-0
0
LINE
5
4B
100
AcDbEntity
8
0
6
ByLayer
62
0
370
-1
100
AcDbLine
10
13.3906198462
20
0
11
13.4210221666
21
0.00136749784549
0
LINE
5
4C
100
AcDbEntity
8
0
6
ByLayer
62
0
370
-1
100
AcDbLine
10
13.0994493438
20
-2.777251655
11
10.760812004
21
-2.28143047566
0
LINE
5
4D
100
AcDbEntity
8
0
6
ByLayer
62
0
370
-1
100
AcDbLine
10
13.4210221666
20
0.00136749784549
11
13.511814553
21
0.010925068132
0
LINE
5
4E
100
AcDbEntity
8
0
6
ByLayer
62
0
370
-1
100
AcDbLine
10
13.1289069623
20
-2.78489494296
11
13.0994493438
21
-2.777251655
0
LINE
5
4F
100
AcDbEntity
8
0
6
ByLayer
62
0
370
-1
100
AcDbLine
10
13.511814553
20
0.010925068132
11
13.6617564206
21
0.0367883190679
0
LINE
5
50
100
AcDbEntity
8
0
6
ByLayer
62
0
370
-1
100
AcDbLine
10
13.2157428594
20
-2.81307528244
11
13.1289069623
21
-2.78489494296
0
LINE
5
51
100
AcDbEntity
8
0
6
ByLayer
62
0
370
-1
100
AcDbLine
10
13.6617564206
20
0.0367883190679
11
13.8687905756
21
0.086924438041
0
LINE
5
52
100
AcDbEntity
8
0
6
ByLayer
62
0
370
-1
100
AcDbLine
10
13.3570602268
20
-2.86947451223
11
13.2157428594
21
-2.81307528244
0
LINE
5
53
100
AcDbEntity
8
0
6
ByLayer
62
0
370
-1
100
AcDbLine
10
13.8687905756
20
0.086924438041
11
14.1300588147
21
0.169079247241
0
LINE
5
54
100
AcDbEntity
8
0
6
ByLayer
62
0
370
-1
100
AcDbLine
10
13.5491941858
20
-2.96145991054
11
13.3570602268
21
-2.86947451223
0
LINE
5
55
100
AcDbEntity
8
0
6
ByLayer
62
0
370
-1
100
AcDbLine
10
14.1300588147
20
0.169079247241
11
14.4419236277
21
0.290705769927
0
LINE
5
56
100
AcDbEntity
8
0
6
ByLayer
62
0
370
-1
100
AcDbLine
10
13.7877421784
20
-3.09601607236
11
13.5491941858
21
-2.96145991054
0
LINE
5
57
100
AcDbEntity
8
0
6
ByLayer
62
0
370
-1
100
AcDbLine
10
14.4419236277
20
0.290705769927
11
14.7999958614
21
0.458894796617
0
LINE
5
58
100
AcDbEntity
8
0
6
ByLayer
62
0
370
-1
100
AcDbLine
10
14.0676000119
20
-3.27967953
11
13.7877421784
21
-3.09601607236
0
LINE
5
59
100
AcDbEntity
8
0
6
ByLayer
62
0
370
-1
100
AcDbLine
10
14.7999958614
20
0.458894796617
11
15.1991681705
21
0.680307928339
0
LINE
5
5A
100
AcDbEntity
8
0
6
ByLayer
62
0
370
-1
100
AcDbLine
10
14.3830033227
20
-3.5184765667
11
14.0676000119
21
-3.27967953
0
LINE
5
5B
100
AcDbEntity
8
0
6
ByLayer
62
0
370
-1
100
AcDbLine
10
15.1991681705
20
0.680307928339
11
15.6336540419
21
0.96111355906
0
LINE
5
5C
100
AcDbEntity
8
0
6
ByLayer
62
0
370
-1
100
AcDbLine
10
14.7275741871
20
-3.81786465367
11
14.3830033227
21
-3.5184765667
0
LINE
5
5D
100
AcDbEntity
8
0
6
ByLayer
62
0
370
-1
100
AcDbLine
10
15.6336540419
20
0.96111355906
11
16.0970321426
21
1.30692624156
0
LINE
5
5E
100
AcDbEntity
8
0
6
ByLayer
62
0
370
-1
100
AcDbLine
10
15.0943725741
20
-4.18267791823
11
14.7275741871
21
-3.81786465367
0
ARC
5
5F
100
AcDbEntity
8
0
6
ByLayer
62
0
370
-1
100
AcDbCircle
10
-2.93702839826e-11
20
-2.91577872957e-12
40
16.15
100
AcDbArc
50
4.64169221092
51
7.38811655681
0
LINE
5
60
100
AcDbEntity
8
0
6
ByLayer
62
0
370
-1
100
AcDbLine
10
15.4759523047
20
-4.61707702601
11
15.0943725741
21
-4.18267791823
0
LINE
5
61
100
AcDbEntity
8
0
6
ByLayer
62
0
370
-1
100
AcDbLine
10
16.015920341
20
2.0767271441
11
15.4906438766
21
2.31836801716
0
ARC
5
62
100
AcDbEntity
8
0
6
ByLayer
62
0
370
-1
100
AcDbCircle
10
-2.32764918451e-11
20
7.59348139923e-12
40
16.15
100
AcDbArc
50
-19.3583077891
51
-16.6118834432
0
LINE
5
63
100
AcDbEntity
8
0
6
ByLayer
62
0
370
-1
100
AcDbLine
10
15.4906438766
20
2.31836801716
11
15.0071739537
21
2.50245117327
0
LINE
5
64
100
AcDbEntity
8
0
6
ByLayer
62
0
370
-1
100
AcDbLine
10
14.6729737389
20
-5.48075903784
11
15.2369453876
21
-5.35331628571
0
LINE
5
65
100
AcDbEntity
8
0
6
ByLayer
62
0
370
-1
100
AcDbLine
10
15.0071739537
20
2.50245117327
11
14.5706207002
21
2.63580620349
0
LINE
5
66
100
AcDbEntity
8
0
6
ByLayer
62
0
370
-1
100
AcDbLine
10
14.1618372051
20
-5.56056642147
11
14.6729737389
21
-5.48075903784
0
LINE
5
67
100
AcDbEntity
8
0
6
ByLayer
62
0
370
-1
100
AcDbLine
10
14.5706207002
20
2.63580620349
11
14.1853579332
21
2.72567206781
0
LINE
5
68
100
AcDbEntity
8
0
6
ByLayer
62
0
370
-1
100
AcDbLine
10
13.7071183214
20
-5.60047937721
11
14.1618372051
21
-5.56056642147
0
LINE
5
69
100
AcDbEntity
8
0
6
ByLayer
62
0
370
-1
100
AcDbLine
10
14.1853579332
20
2.72567206781
11
13.8549924224
21
2.77962854955
0
LINE
5
6A
100
AcDbEntity
8
0
6
ByLayer
62
0
370
-1
100
AcDbLine
10
13.3115944187
20
-5.60848660027
11
13.7071183214
21
-5.60047937721
0
LINE
5
6B
100
AcDbEntity
8
0
6
ByLayer
62
0
370
-1
100
AcDbLine
10
13.8549924224
20
2.77962854955
11
13.5823390658
21
2.80552551026
0
LINE
5
6C
100
AcDbEntity
8
0
6
ByLayer
62
0
370
-1
100
AcDbLine
10
12.9772217718
20
-5.59275111046
11
13.3115944187
21
-5.60848660027
0
LINE
5
6D
100
AcDbEntity
8
0
6
ByLayer
62
0
370
-1
100
AcDbLine
10
13.5823390658
20
2.80552551026
11
13.3694021281
21
2.81141043153
0
LINE
5
6E
100
AcDbEntity
8
0
6
ByLayer
62
0
370
-1
100
AcDbLine
10
12.7051259874
20
-5.5615358967
11
12.9772217718
21
-5.59275111046
0
LINE
5
6F
100
AcDbEntity
8
0
6
ByLayer
62
0
370
-1
100
AcDbLine
10
13.3694021281
20
2.81141043153
11
13.2173626557
21
2.80545474011
0
LINE
5
70
100
AcDbEntity
8
0
6
ByLayer
62
0
370
-1
100
AcDbLine
10
12.4955986789
20
-5.52312914327
11
12.7051259874
21
-5.5615358967
0
LINE
5
71
100
AcDbEntity
8
0
6
ByLayer
62
0
370
-1
100
AcDbLine
10
13.2173626557
20
2.80545474011
11
13.1265721396
21
2.79587941993
0
LINE
5
72
100
AcDbEntity
8
0
6
ByLayer
62
0
370
-1
100
AcDbLine
10
12.3481004349
20
-5.48576954677
11
12.4955986789
21
-5.52312914327
0
LINE
5
73
100
AcDbEntity
8
0
6
ByLayer
62
0
370
-1
100
AcDbLine
10
13.1265721396
20
2.79587941993
11
13.0965524608
21
2.79088041807
0
LINE
5
74
100
AcDbEntity
8
0
6
ByLayer
62
0
370
-1
100
AcDbLine
10
12.2612700487
20
-5.45757223125
11
12.3481004349
21
-5.48576954677
0
LINE
5
75
100
AcDbEntity
8
0
6
ByLayer
62
0
370
-1
100
AcDbLine
10
13.0965524608
20
2.79088041807
11
10.7584322999
21
2.2926261033
0
LINE
5
76
100
AcDbEntity
8
0
6
ByLayer
62
0
370
-1
100
AcDbLine
10
12.2329399355
20
-5.44645576495
11
12.2612700487
21
-5.45757223125
0
ARC
5
77
100
AcDbEntity
8
0
6
ByLayer
62
0
370
-1
100
AcDbCircle
10
-5.99520433298e-13
20
-2.00950367457e-13
40
11
100
AcDbArc
50
12.0298087677
51
24
0
LINE
5
78
100
AcDbEntity
8
0
6
ByLayer
62
0
370
-1
100
AcDbLine
10
10.0490000341
20
-4.47410307383
11
12.2329399355
21
-5.44645576495
0
LINE
5
79
100
AcDbEntity
8
0
6
ByLayer
62
0
370
-1
100
AcDbLine
10
10.0490000341
20
4.47410307383
11
12.2329399355
21
5.44645576495
0
ARC
5
7A
100
AcDbEntity
8
0
6
ByLayer
62
0
370
-1
100
AcDbCircle
10
-3.01092484278e-13
20
1.61648472385e-13
40
11
100
AcDbArc
50
-35.9701912323
51
-24
0
LINE
5
7B
100
AcDbEntity
8
0
6
ByLayer
62
0
370
-1
100
AcDbLine
10
12.2329399355
20
5.44645576495
11
12.2601576257
21
5.46007077414
0
LINE
5
7C
100
AcDbEntity
8
0
6
ByLayer
62
0
370
-1
100
AcDbLine
10
10.8373324305
20
-7.86517168639
11
8.90254955369
21
-6.46100699923
0
LINE
5
7D
100
AcDbEntity
8
0
6
ByLayer
62
0
370
-1
100
AcDbLine
10
12.2601576257
20
5.46007077414
11
12.3392131838
21
5.5057306395
0
LINE
5
7E
100
AcDbEntity
8
0
6
ByLayer
62
0
370
-1
100
AcDbLine
10
10.8611344988
20
-7.88413567024
11
10.8373324305
21
-7.86517168639
0
LINE
5
7F
100
AcDbEntity
8
0
6
ByLayer
62
0
370
-1
100
AcDbLine
10
12.3392131838
20
5.5057306395
11
12.4656723641
21
5.59034474683
0
LINE
5
80
100
AcDbEntity
8
0
6
ByLayer
62
0
370
-1
100
AcDbLine
10
10.9290010615
20
-7.94519903267
11
10.8611344988
21
-7.88413567024
0
LINE
5
81
100
AcDbEntity
8
0
6
ByLayer
62
0
370
-1
100
AcDbLine
10
12.4656723641
20
5.59034474683
11
12.6344152792
21
5.72035474776
0
LINE
5
82
100
AcDbEntity
8
0
6
ByLayer
62
0
370
-1
100
AcDbLine
10
11.0351612671
20
-8.05420124446
11
10.9290010615
21
-7.94519903267
0
LINE
5
83
100
AcDbEntity
8
0
6
ByLayer
62
0
370
-1
100
AcDbLine
10
12.6344152792
20
5.72035474776
11
12.839680321
21
5.90167426706
0
LINE
5
84
100
AcDbEntity
8
0
6
ByLayer
62
0
370
-1
100
AcDbLine
10
11.1732705406
20
-8.21638200879
11
11.0351612671
21
-8.05420124446
0
LINE
5
85
100
AcDbEntity
8
0
6
ByLayer
62
0
370
-1
100
AcDbLine
10
12.839680321
20
5.90167426706
11
13.0751130408
21
6.13963247153
0
LINE
5
86
100
AcDbEntity
8
0
6
ByLayer
62
0
370
-1
100
AcDbLine
10
11.3364660541
20
-8.43633138894
11
11.1732705406
21
-8.21638200879
0
LINE
5
87
100
AcDbEntity
8
0
6
ByLayer
62
0
370
-1
100
AcDbLine
10
13.0751130408
20
6.13963247153
11
13.3338196632
21
6.43892189118
0
LINE
5
88
100
AcDbEntity
8
0
6
ByLayer
62
0
370
-1
100
AcDbLine
10
11.5174262484
20
-8.71794474213
11
11.3364660541
21
-8.43633138894
0
LINE
5
89
100
AcDbEntity
8
0
6
ByLayer
62
0
370
-1
100
AcDbLine
10
13.3338196632
20
6.43892189118
11
13.608424879
21
6.80355085693
0
LINE
5
8A
100
AcDbEntity
8
0
6
ByLayer
62
0
370
-1
100
AcDbLine
10
11.7084340052
20
-9.06438277416
11
11.5174262484
21
-8.71794474213
0
LINE
5
8B
100
AcDbEntity
8
0
6
ByLayer
62
0
370
-1
100
AcDbLine
10
13.608424879
20
6.80355085693
11
13.8911335337
21
7.23680089016
0
LINE
5
8C
100
AcDbEntity
8
0
6
ByLayer
62
0
370
-1
100
AcDbLine
10
11.9014430478
20
-9.47803699778
11
11.7084340052
21
-9.06438277416
0
LINE
5
8D
100
AcDbEntity
8
0
6
ByLayer
62
0
370
-1
100
AcDbLine
10
13.8911335337
20
7.23680089016
11
14.1737958031
21
7.7411893486
0
LINE
5
8E
100
AcDbEntity
8
0
6
ByLayer
62
0
370
-1
100
AcDbLine
10
12.0881471255
20
-9.96050084312
11
11.9014430478
21
-9.47803699778
0
ARC
5
8F
100
AcDbEntity
8
0
6
ByLayer
62
0
370
-1
100
AcDbCircle
10
-1.73683289972e-11
20
-9.96891458271e-12
40
16.15
100
AcDbArc
50
28.6416922109
51
31.3881165568
0
LINE
5
90
100
AcDbEntity
8
0
6
ByLayer
62
0
370
-1
100
AcDbLine
10
12.2600515202
20
-10.5125466335
11
12.0881471255
21
-9.96050084312
0
LINE
5
91
100
AcDbEntity
8
0
6
ByLayer
62
0
370
-1
100
AcDbLine
10
13.7865902503
20
8.41144632452
11
13.2084421247
21
8.41854706067
0
ARC
5
92
100
AcDbEntity
8
0
6
ByLayer
62
0
370
-1
100
AcDbCircle
10
-1.42366118894e-11
20
1.2885692513e-11
40
16.15
100
AcDbArc
50
-43.3583077891
51
-40.6118834432
0
LINE
5
93
100
AcDbEntity
8
0
6
ByLayer
62
0
370
-1
100
AcDbLine
10
13.2084421247
20
8.41854706067
11
12.6918970078
21
8.3900704583
0
LINE
5
94
100
AcDbEntity
8
0
6
ByLayer
62
0
370
-1
100
AcDbLine
10
11.1752029768
20
-10.974958606
11
11.7422523518
21
-11.0879217938
0
LINE
5
95
100
AcDbEntity
8
0
6
ByLayer
62
0
370
-1
100
AcDbLine
10
12.6918970078
20
8.3900704583
11
12.2388453887
21
8.33433413555
0
LINE
5
96
100
AcDbEntity
8
0
6
ByLayer
62
0
370
-1
100
AcDbLine
10
10.6757959307
20
-10.8399683208
11
11.1752029768
21
-10.974958606
0
LINE
5
97
100
AcDbEntity
8
0
6
ByLayer
62
0
370
-1
100
AcDbLine
10
12.2388453887
20
8.33433413555
11
11.8503385979
21
8.25973020314
0
LINE
5
98
100
AcDbEntity
8
0
6
ByLayer
62
0
370
-1
100
AcDbLine
10
10.2441554984
20
-10.691479788
11
10.6757959307
21
-10.8399683208
0
LINE
5
99
100
AcDbEntity
8
0
6
ByLayer
62
0
370
-1
100
AcDbLine
10
11.8503385979
20
8.25973020314
11
11.5265886079
21
8.17465014311
0
LINE
5
9A
100
AcDbEntity
8
0
6
ByLayer
62
0
370
-1
100
AcDbLine
10
9.87956960267
20
-10.5379206858
11
10.2441554984
21
-10.691479788
0
LINE
5
9B
100
AcDbEntity
8
0
6
ByLayer
62
0
370
-1
100
AcDbLine
10
11.5265886079
20
8.17465014311
11
11.2669741296
21
8.08741008294
0
LINE
5
9C
100
AcDbEntity
8
0
6
ByLayer
62
0
370
-1
100
AcDbLine
10
9.58050519026
20
-10.3875439926
11
9.87956960267
21
-10.5379206858
0
LINE
5
9D
100
AcDbEntity
8
0
6
ByLayer
62
0
370
-1
100
AcDbLine
10
11.2669741296
20
8.08741008294
11
11.0700529443
21
8.00617697081
0
LINE
5
9E
100
AcDbEntity
8
0
6
ByLayer
62
0
370
-1
100
AcDbLine
10
9.34462969363
20
-10.2483561499
11
9.58050519026
21
-10.3875439926
0
LINE
5
9F
100
AcDbEntity
8
0
6
ByLayer
62
0
370
-1
100
AcDbLine
10
11.0700529443
20
8.00617697081
11
10.9335803728
21
7.93889615134
0
LINE
5
A0
100
AcDbEntity
8
0
6
ByLayer
62
0
370
-1
100
AcDbLine
10
9.16883840663
20
-10.1280474007
11
9.34462969363
21
-10.2483561499
0
LINE
5
A1
100
AcDbEntity
8
0
6
ByLayer
62
0
370
-1
100
AcDbLine
10
10.9335803728
20
7.93889615134
11
10.8545337428
21
7.89322083134
0
LINE
5
A2
100
AcDbEntity
8
0
6
ByLayer
62
0
370
-1
100
AcDbLine
10
9.04928757268
20
-10.0339247704
11
9.16883840663
21
-10.1280474007
0
LINE
5
A3
100
AcDbEntity
8
0
6
ByLayer
62
0
370
-1
100
AcDbLine
10
10.8545337428
20
7.89322083134
11
10.8291426788
21
7.87644391251
0
LINE
5
A4
100
AcDbEntity
8
0
6
ByLayer
62
0
370
-1
100
AcDbLine
10
8.98143294925
20
-9.97284814107
11
9.04928757268
21
-10.0339247704
0
LINE
5
A5
100
AcDbEntity
8
0
6
ByLayer
62
0
370
-1
100
AcDbLine
10
10.8291426788
20
7.87644391251
11
8.8958219138
21
6.47026680114
0
LINE
5
A6
100
AcDbEntity
8
0
6
ByLayer
62
0
370
-1
100
AcDbLine
10
8.96007357721
20
-9.95116984864
11
8.98143294925
21
-9.97284814107
0
ARC
5
A7
100
AcDbEntity
8
0
6
ByLayer
62
0
370
-1
100
AcDbCircle
10
-7.59392548844e-13
20
-6.91002810527e-13
40
11
100
AcDbArc
50
36.0298087677
51
48
0
LINE
5
A8
100
AcDbEntity
8
0
6
ByLayer
62
0
370
-1
100
AcDbLine
10
7.36043666995
20
-8.17459308025
11
8.96007357721
21
-9.95116984864
0
LINE
5
A9
100
AcDbEntity
8
0
6
ByLayer
62
0
370
-1
100
AcDbLine
10
7.36043666995
20
8.17459308025
11
8.96007357721
21
9.95116984864
0
ARC
5
AA
100
AcDbEntity
8
0
6
ByLayer
62
0
370
-1
100
AcDbCircle
10
-1.52322598979e-13
20
1.97175609173e-13
40
11
100
AcDbArc
50
-59.9701912323
51
-48
0
LINE
5
AB
100
AcDbEntity
8
0
6
ByLayer
62
0
370
-1
100
AcDbLine
10
8.96007357721
20
9.95116984864
11
8.97940045135
21
9.9746782104
0
LINE
5
AC
100
AcDbEntity
8
0
6
ByLayer
62
0
370
-1
100
AcDbLine
10
6.70134228591
20
-11.5931320804
11
5.50495540846
21
-9.52341671622
0
LINE
5
AD
100
AcDbEntity
8
0
6
ByLayer
62
0
370
-1
100
AcDbLine
10
8.97940045135
20
9.9746782104
11
9.03304975698
21
10.0485453653
0
LINE
5
AE
100
AcDbEntity
8
0
6
ByLayer
62
0
370
-1
100
AcDbLine
10
6.71537321012
20
-11.620137715
11
6.70134228591
21
-11.5931320804
0
LINE
5
AF
100
AcDbEntity
8
0
6
ByLayer
62
0
370
-1
100
AcDbLine
10
9.03304975698
20
10.0485453653
11
9.11416030872
21
10.1772797812
0
LINE
5
B0
100
AcDbEntity
8
0
6
ByLayer
62
0
370
-1
100
AcDbLine
10
6.75253569318
20
-11.7035256903
11
6.71537321012
21
-11.620137715
0
LINE
5
B1
100
AcDbEntity
8
0
6
ByLayer
62
0
370
-1
100
AcDbLine
10
9.11416030872
20
10.1772797812
11
9.21543480096
21
10.3646837538
0
LINE
5
B2
100
AcDbEntity
8
0
6
ByLayer
62
0
370
-1
100
AcDbLine
10
6.8051826731
20
-11.8462834114
11
6.75253569318
21
-11.7035256903
0
LINE
5
B3
100
AcDbEntity
8
0
6
ByLayer
62
0
370
-1
100
AcDbLine
10
9.21543480096
20
10.3646837538
11
9.32920445489
21
10.6138161911
0
LINE
5
B4
100
AcDbEntity
8
0
6
ByLayer
62
0
370
-1
100
AcDbLine
10
6.86538691286
20
-12.0506170142
11
6.8051826731
21
-11.8462834114
0
LINE
5
B5
100
AcDbEntity
8
0
6
ByLayer
62
0
370
-1
100
AcDbLine
10
9.32920445489
20
10.6138161911
11
9.44749662535
21
10.926960942
0
LINE
5
B6
100
AcDbEntity
8
0
6
ByLayer
62
0
370
-1
100
AcDbLine
10
6.9250119604
20
-12.3179283667
11
6.86538691286
21
-12.0506170142
0
LINE
5
B7
100
AcDbEntity
8
0
6
ByLayer
62
0
370
-1
100
AcDbLine
10
9.44749662535
20
10.926960942
11
9.56210491129
21
11.305600895
0
LINE
5
B8
100
AcDbEntity
8
0
6
ByLayer
62
0
370
-1
100
AcDbLine
10
6.97578485402
20
-12.6487981083
11
6.9250119604
21
-12.3179283667
0
LINE
5
B9
100
AcDbEntity
8
0
6
ByLayer
62
0
370
-1
100
AcDbLine
10
9.56210491129
20
11.305600895
11
9.66466129738
21
11.750398034
0
LINE
5
BA
100
AcDbEntity
8
0
6
ByLayer
62
0
370
-1
100
AcDbLine
10
7.00937008047
20
-13.0429748526
11
6.97578485402
21
-12.6487981083
0
LINE
5
BB
100
AcDbEntity
8
0
6
ByLayer
62
0
370
-1
100
AcDbLine
10
9.66466129738
20
11.750398034
11
9.74670984053
21
12.2611796031
0
LINE
5
BC
100
AcDbEntity
8
0
6
ByLayer
62
0
370
-1
100
AcDbLine
10
7.01744428429
20
-13.4993706397
11
7.00937008047
21
-13.0429748526
0
LINE
5
BD
100
AcDbEntity
8
0
6
ByLayer
62
0
370
-1
100
AcDbLine
10
9.74670984053
20
12.2611796031
11
9.79978140445
21
12.8369304908
0
LINE
5
BE
100
AcDbEntity
8
0
6
ByLayer
62
0
370
-1
100
AcDbLine
10
6.99177122157
20
-14.0160626839
11
7.01744428429
21
-13.4993706397
0
ARC
5
BF
100
AcDbEntity
8
0
6
ByLayer
62
0
370
-1
100
AcDbCircle
10
-6.60982379941e-12
20
-9.05231445358e-12
40
16.15
100
AcDbArc
50
52.6416922109
51
55.3881165568
0
LINE
5
C0
100
AcDbEntity
8
0
6
ByLayer
62
0
370
-1
100
AcDbLine
10
6.92427644888
20
-14.5903014246
11
6.99177122157
21
-14.0160626839
0
LINE
5
C1
100
AcDbEntity
8
0
6
ByLayer
62
0
370
-1
100
AcDbLine
10
9.1734334581
20
13.2917500198
11
8.64238073453
21
13.0630828373
0
ARC
5
C2
100
AcDbEntity
8
0
6
ByLayer
62
0
370
-1
100
AcDbCircle
10
-5.60884672041e-12
20
1.26414434476e-11
40
16.15
100
AcDbArc
50
-67.3583077891
51
-64.6118834432
0
LINE
5
C3
100
AcDbEntity
8
0
6
ByLayer
62
0
370
-1
100
AcDbLine
10
8.64238073453
20
13.0630828373
11
8.18207576695
21
12.8269703397
0
LINE
5
C4
100
AcDbEntity
8
0
6
ByLayer
62
0
370
-1
100
AcDbLine
10
5.74513809636
20
-14.5714881268
11
6.21721720941
21
-14.9053248932
0
LINE
5
C5
100
AcDbEntity
8
0
6
ByLayer
62
0
370
-1
100
AcDbLine
10
8.18207576695
20
12.8269703397
11
7.79086252306
21
12.5917799805
0
LINE
5
C6
100
AcDbEntity
8
0
6
ByLayer
62
0
370
-1
100
AcDbLine
10
5.34381255337
20
-14.2450412195
11
5.74513809636
21
-14.5714881268
0
LINE
5
C7
100
AcDbEntity
8
0
6
ByLayer
62
0
370
-1
100
AcDbLine
10
7.79086252306
20
12.5917799805
11
7.46628806211
21
12.3656059491
0
LINE
5
C8
100
AcDbEntity
8
0
6
ByLayer
62
0
370
-1
100
AcDbLine
10
5.00988512446
20
-13.9338262143
11
5.34381255337
21
-14.2450412195
0
LINE
5
C9
100
AcDbEntity
8
0
6
ByLayer
62
0
370
-1
100
AcDbLine
10
7.46628806211
20
12.3656059491
11
7.20513290737
21
12.1562004626
0
LINE
5
CA
100
AcDbEntity
8
0
6
ByLayer
62
0
370
-1
100
AcDbLine
10
4.73927744925
20
-13.6452525507
11
5.00988512446
21
-13.9338262143
0
LINE
5
CB
100
AcDbEntity
8
0
6
ByLayer
62
0
370
-1
100
AcDbLine
10
7.20513290737
20
12.1562004626
11
7.00344700917
21
11.9709079805
0
LINE
5
CC
100
AcDbEntity
8
0
6
ByLayer
62
0
370
-1
100
AcDbLine
10
4.52723222512
20
-13.3862361506
11
4.73927744925
21
-13.6452525507
0
LINE
5
CD
100
AcDbEntity
8
0
6
ByLayer
62
0
370
-1
100
AcDbLine
10
7.00344700917
20
11.9709079805
11
6.85659103815
21
11.816602778
0
LINE
5
CE
100
AcDbEntity
8
0
6
ByLayer
62
0
370
-1
100
AcDbLine
10
4.3683620325
20
-13.1631425214
11
4.52723222512
21
-13.3862361506
0
LINE
5
CF
100
AcDbEntity
8
0
6
ByLayer
62
0
370
-1
100
AcDbLine
10
6.85659103815
20
11.816602778
11
6.75928271504
21
11.6996302954
0
LINE
5
D0
100
AcDbEntity
8
0
6
ByLayer
62
0
370
-1
100
AcDbLine
10
4.25670267756
20
-12.9817342521
11
4.3683620325
21
-13.1631425214
0
LINE
5
D1
100
AcDbEntity
8
0
6
ByLayer
62
0
370
-1
100
AcDbLine
10
6.75928271504
20
11.6996302954
11
6.7056478516
21
11.6257526534
0
LINE
5
D2
100
AcDbEntity
8
0
6
ByLayer
62
0
370
-1
100
AcDbLine
10
4.18577067895
20
-12.8471232459
11
4.25670267756
21
-12.9817342521
0
LINE
5
D3
100
AcDbEntity
8
0
6
ByLayer
62
0
370
-1
100
AcDbLine
10
6.7056478516
20
11.6257526534
11
6.68927574806
21
11.6000986992
0
LINE
5
D4
100
AcDbEntity
8
0
6
ByLayer
62
0
370
-1
100
AcDbLine
10
4.1486244991
20
-12.7637280068
11
4.18577067895
21
-12.8471232459
0
LINE
5
D5
100
AcDbEntity
8
0
6
ByLayer
62
0
370
-1
100
AcDbLine
10
6.68927574806
20
11.6000986992
11
5.49504310285
21
9.52913958854
0
LINE
5
D6
100
AcDbEntity
8
0
6
ByLayer
62
0
370
-1
100
AcDbLine
10
4.13792909769
20
-12.735236262
11
4.1486244991
21
-12.7637280068
0
ARC
5
D7
100
AcDbEntity
8
0
6
ByLayer
62
0
370
-1
100
AcDbCircle
10
-3.71924713249e-13
20
-8.47322212394e-13
40
11
100
AcDbArc
50
60.0298087677
51
72
0
LINE
5
D8
100
AcDbEntity
8
0
6
ByLayer
62
0
370
-1
100
AcDbLine
10
3.39918693812
20
-10.4616216792
11
4.13792909769
21
-12.735236262
0
LINE
5
D9
100
AcDbEntity
8
0
6
ByLayer
62
0
370
-1
100
AcDbLine
10
3.39918693812
20
10.4616216792
11
4.13792909769
21
12.735236262
0
ARC
5
DA
100
AcDbEntity
8
0
6
ByLayer
62
0
370
-1
100
AcDbCircle
10
-1.50546242139e-13
20
6.53699316899e-13
40
11
100
AcDbArc
50
-83.9701912323
51
-72
0
LINE
5
DB
100
AcDbEntity
8
0
6
ByLayer
62
0
370
-1
100
AcDbLine
10
4.13792909769
20
12.735236262
11
4.14602336363
21
12.764573167
0
LINE
5
DC
100
AcDbEntity
8
0
6
ByLayer
62
0
370
-1
100
AcDbLine
10
1.4066291803
20
-13.3165346173
11
1.15550446215
21
-10.9391411655
0
LINE
5
DD
100
AcDbEntity
8
0
6
ByLayer
62
0
370
-1
100
AcDbLine
10
4.14602336363
20
12.764573167
11
4.16498996447
21
12.8538753093
0
LINE
5
DE
100
AcDbEntity
8
0
6
ByLayer
62
0
370
-1
100
AcDbLine
10
1.4084628862
20
-13.3469123832
11
1.4066291803
21
-13.3165346173
0
LINE
5
DF
100
AcDbEntity
8
0
6
ByLayer
62
0
370
-1
100
AcDbLine
10
4.16498996447
20
12.8538753093
11
4.18672713642
21
13.0044706837
0
LINE
5
E0
100
AcDbEntity
8
0
6
ByLayer
62
0
370
-1
100
AcDbLine
10
1.40849555866
20
-13.4382064329
11
1.4084628862
21
-13.3469123832
0
LINE
5
E1
100
AcDbEntity
8
0
6
ByLayer
62
0
370
-1
100
AcDbLine
10
4.18672713642
20
13.0044706837
11
4.20302192605
21
13.2168647786
0
LINE
5
E2
100
AcDbEntity
8
0
6
ByLayer
62
0
370
-1
100
AcDbLine
10
1.39852617176
20
-13.5900355564
11
1.40849555866
21
-13.4382064329
0
LINE
5
E3
100
AcDbEntity
8
0
6
ByLayer
62
0
370
-1
100
AcDbLine
10
4.20302192605
20
13.2168647786
11
4.2056243854
21
13.4907328722
0
LINE
5
E4
100
AcDbEntity
8
0
6
ByLayer
62
0
370
-1
100
AcDbLine
10
1.37041551784
20
-13.8011908615
11
1.39852617176
21
-13.5900355564
0
LINE
5
E5
100
AcDbEntity
8
0
6
ByLayer
62
0
370
-1
100
AcDbLine
10
4.2056243854
20
13.4907328722
11
4.18632221562
21
13.8249185973
0
LINE
5
E6
100
AcDbEntity
8
0
6
ByLayer
62
0
370
-1
100
AcDbLine
10
1.31616038702
20
-14.069643625
11
1.37041551784
21
-13.8011908615
0
LINE
5
E7
100
AcDbEntity
8
0
6
ByLayer
62
0
370
-1
100
AcDbLine
10
4.18632221562
20
13.8249185973
11
4.13701535123
21
14.2174387959
0
LINE
5
E8
100
AcDbEntity
8
0
6
ByLayer
62
0
370
-1
100
AcDbLine
10
1.22796688537
20
-14.3925593708
11
1.31616038702
21
-14.069643625
0
LINE
5
E9
100
AcDbEntity
8
0
6
ByLayer
62
0
370
-1
100
AcDbLine
10
4.13701535123
20
14.2174387959
11
4.0497899767
21
14.6654946421
0
LINE
5
EA
100
AcDbEntity
8
0
6
ByLayer
62
0
370
-1
100
AcDbLine
10
1.09832239067
20
-14.7663180874
11
1.22796688537
21
-14.3925593708
0
LINE
5
EB
100
AcDbEntity
8
0
6
ByLayer
62
0
370
-1
100
AcDbLine
10
4.0497899767
20
14.6654946421
11
3.91699146987
21
15.1654889733
0
LINE
5
EC
100
AcDbEntity
8
0
6
ByLayer
62
0
370
-1
100
AcDbLine
10
0.920065652538
20
-15.1865404601
11
1.09832239067
21
-14.7663180874
0
LINE
5
ED
100
AcDbEntity
8
0
6
ByLayer
62
0
370
-1
100
AcDbLine
10
3.91699146987
20
15.1654889733
11
3.73129577271
21
15.7130497312
0
LINE
5
EE
100
AcDbEntity
8
0
6
ByLayer
62
0
370
-1
100
AcDbLine
10
0.686454555142
20
-15.6481199547
11
0.920065652538
21
-15.1865404601
0
ARC
5
EF
100
AcDbEntity
8
0
6
ByLayer
62
0
370
-1
100
AcDbCircle
10
-3.51496609596e-12
20
-1.6392220914e-11
40
16.15
100
AcDbArc
50
76.6416922109
51
79.3881165568
0
LINE
5
F0
100
AcDbEntity
8
0
6
ByLayer
62
0
370
-1
100
AcDbLine
10
0.391231074449
20
-16.1452605506
11
0.686454555142
21
-15.6481199547
0
LINE
5
F1
100
AcDbEntity
8
0
6
ByLayer
62
0
370
-1
100
AcDbLine
10
2.97410668296
20
15.873789385
11
2.58197320179
21
15.448892917
0
ARC
5
F2
100
AcDbEntity
8
0
6
ByLayer
62
0
370
-1
100
AcDbCircle
10
7.05824287905e-14
20
8.87645512648e-12
40
16.15
100
AcDbArc
50
-91.3583077891
51
-88.6118834432
0
LINE
5
F3
100
AcDbEntity
8
0
6
ByLayer
62
0
370
-1
100
AcDbLine
10
2.58197320179
20
15.448892917
11
2.25749929419
21
15.04597052
0
LINE
5
F4
100
AcDbEntity
8
0
6
ByLayer
62
0
370
-1
100
AcDbLine
10
-0.678313353835
20
-15.6484749726
11
-0.382831270173
21
-16.1454619079
0
LINE
5
F5
100
AcDbEntity
8
0
6
ByLayer
62
0
370
-1
100
AcDbLine
10
2.25749929419
20
15.04597052
11
1.99576874943
21
14.6719926741
0
LINE
5
F6
100
AcDbEntity
8
0
6
ByLayer
62
0
370
-1
100
AcDbLine
10
-0.91216456148
20
-15.1870170792
11
-0.678313353835
21
-15.6484749726
0
LINE
5
F7
100
AcDbEntity
8
0
6
ByLayer
62
0
370
-1
100
AcDbLine
10
1.99576874943
20
14.6719926741
11
1.79124849127
21
14.3333560884
0
LINE
5
F8
100
AcDbEntity
8
0
6
ByLayer
62
0
370
-1
100
AcDbLine
10
-1.09063990085
20
-14.7668875034
11
-0.91216456148
21
-15.1870170792
0
LINE
5
F9
100
AcDbEntity
8
0
6
ByLayer
62
0
370
-1
100
AcDbLine
10
1.79124849127
20
14.3333560884
11
1.63784427054
21
14.0358332864
0
LINE
5
FA
100
AcDbEntity
8
0
6
ByLayer
62
0
370
-1
100
AcDbLine
10
-1.22047883013
20
-14.3931962864
11
-1.09063990085
21
-14.7668875034
0
LINE
5
FB
100
AcDbEntity
8
0
6
ByLayer
62
0
370
-1
100
AcDbLine
10
1.63784427054
20
14.0358332864
11
1.52896027652
21
13.7845271359
0
LINE
5
FC
100
AcDbEntity
8
0
6
ByLayer
62
0
370
-1
100
AcDbLine
10
-1.30884032035
20
-14.070326468
11
-1.22047883013
21
-14.3931962864
0
LINE
5
FD
100
AcDbEntity
8
0
6
ByLayer
62
0
370
-1
100
AcDbLine
10
1.52896027652
20
13.7845271359
11
1.45756225133
21
13.5838306144
0
LINE
5
FE
100
AcDbEntity
8
0
6
ByLayer
62
0
370
-1
100
AcDbLine
10
-1.36323510937
20
-13.8019019676
11
-1.30884032035
21
-14.070326468
0
LINE
5
FF
100
AcDbEntity
8
0
6
ByLayer
62
0
370
-1
100
AcDbLine
10
1.45756225133
20
13.5838306144
11
1.41624366967
21
13.4373920736
0
LINE
5
100
100
AcDbEntity
8
0
6
ByLayer
62
0
370
-1
100
AcDbLine
10
-1.39145561538
20
-13.590761316
11
-1.36323510937
21
-13.8019019676
0
LINE
5
101
100
AcDbEntity
8
0
6
ByLayer
62
0
370
-1
100
AcDbLine
10
1.41624366967
20
13.4373920736
11
1.39729452793
21
13.348086225
0
LINE
5
102
100
AcDbEntity
8
0
6
ByLayer
62
0
370
-1
100
AcDbLine
10
-1.40150399171
20
-13.4389373997
11
-1.39145561538
21
-13.590761316
0
LINE
5
103
100
AcDbEntity
8
0
6
ByLayer
62
0
370
-1
100
AcDbLine
10
1.39729452793
20
13.348086225
11
1.39277227029
21
13.3179910373
0
LINE
5
104
100
AcDbEntity
8
0
6
ByLayer
62
0
370
-1
100
AcDbLine
10
-1.40151881601
20
-13.3476433454
11
-1.40150399171
21
-13.4389373997
0
LINE
5
105
100
AcDbEntity
8
0
6
ByLayer
62
0
370
-1
100
AcDbLine
10
1.39277227029
20
13.3179910373
11
1.14412141851
21
10.9403375716
0
LINE
5
106
100
AcDbEntity
8
0
6
ByLayer
62
0
370
-1
100
AcDbLine
10
-1.39970091472
20
-13.3172646296
11
-1.40151881601
21
-13.3476433454
0
ARC
5
107
100
AcDbEntity
8
0
6
ByLayer
62
0
370
-1
100
AcDbCircle
10
-2.22044604925e-16
20
-1.000977079e-12
40
11
100
AcDbArc
50
84.0298087677
51
96
0
LINE
5
108
100
AcDbEntity
8
0
6
ByLayer
62
0
370
-1
100
AcDbLine
10
-1.14981309594
20
-10.9397408491
11
-1.39970091472
21
-13.3172646296
0
LINE
5
109
100
AcDbEntity
8
0
6
ByLayer
62
0
370
-1
100
AcDbLine
10
-1.14981309594
20
10.9397408491
11
-1.39970091472
21
13.3172646296
0
ARC
5
10A
100
AcDbEntity
8
0
6
ByLayer
62
0
370
-1
100
AcDbCircle
10
6.43929354283e-14
20
3.65929508916e-13
40
11
100
AcDbArc
50
-107.970191232
51
-96
0
LINE
5
10B
100
AcDbEntity
8
0
6
ByLayer
62
0
370
-1
100
AcDbLine
10
-1.39970091472
20
13.3172646296
11
-1.40423882911
21
13.3473574605
0
LINE
5
10C
100
AcDbEntity
8
0
6
ByLayer
62
0
370
-1
100
AcDbLine
10
-4.13130288941
20
-12.737387342
11
-3.39374370309
21
-10.4633887282
0
LINE
5
10D
100
AcDbEntity
8
0
6
ByLayer
62
0
370
-1
100
AcDbLine
10
-1.40423882911
20
13.3473574605
11
-1.42323443064
21
13.4366534385
0
LINE
5
10E
100
AcDbEntity
8
0
6
ByLayer
62
0
370
-1
100
AcDbLine
10
-4.14198346622
20
-12.7658846475
11
-4.13130288941
21
-12.737387342
0
LINE
5
10F
100
AcDbEntity
8
0
6
ByLayer
62
0
370
-1
100
AcDbLine
10
-1.42323443064
20
13.4366534385
11
-1.46462919299
21
13.5830704631
0
LINE
5
110
100
AcDbEntity
8
0
6
ByLayer
62
0
370
-1
100
AcDbLine
10
-4.17908625374
20
-12.8492992009
11
-4.14198346622
21
-12.7658846475
0
LINE
5
111
100
AcDbEntity
8
0
6
ByLayer
62
0
370
-1
100
AcDbLine
10
-1.46462919299
20
13.5830704631
11
-1.53613162312
21
13.7837298118
0
LINE
5
112
100
AcDbEntity
8
0
6
ByLayer
62
0
370
-1
100
AcDbLine
10
-4.24994820989
20
-12.9839470921
11
-4.17908625374
21
-12.8492992009
0
LINE
5
113
100
AcDbEntity
8
0
6
ByLayer
62
0
370
-1
100
AcDbLine
10
-1.53613162312
20
13.7837298118
11
-1.64514634722
21
14.0349792802
0
LINE
5
114
100
AcDbEntity
8
0
6
ByLayer
62
0
370
-1
100
AcDbLine
10
-4.36151317004
20
-13.1654134289
11
-4.24994820989
21
-12.9839470921
0
LINE
5
115
100
AcDbEntity
8
0
6
ByLayer
62
0
370
-1
100
AcDbLine
10
-1.64514634722
20
14.0349792802
11
-1.79870533674
21
14.3324222316
0
LINE
5
116
100
AcDbEntity
8
0
6
ByLayer
62
0
370
-1
100
AcDbLine
10
-4.52026727422
20
-13.3885896818
11
-4.36151317004
21
-13.1654134289
0
LINE
5
117
100
AcDbEntity
8
0
6
ByLayer
62
0
370
-1
100
AcDbLine
10
-1.79870533674
20
14.3324222316
11
-2.00340174666
21
14.6709523676
0
LINE
5
118
100
AcDbEntity
8
0
6
ByLayer
62
0
370
-1
100
AcDbLine
10
-4.73217771349
20
-13.6477163658
11
-4.52026727422
21
-13.3885896818
0
LINE
5
119
100
AcDbEntity
8
0
6
ByLayer
62
0
370
-1
100
AcDbLine
10
-2.00340174666
20
14.6709523676
11
-2.26532682213
21
15.0447939946
0
LINE
5
11A
100
AcDbEntity
8
0
6
ByLayer
62
0
370
-1
100
AcDbLine
10
-5.00263521842
20
-13.936430777
11
-4.73217771349
21
-13.6477163658
0
LINE
5
11B
100
AcDbEntity
8
0
6
ByLayer
62
0
370
-1
100
AcDbLine
10
-2.26532682213
20
15.0447939946
11
-2.59001031068
21
15.4475475259
0
LINE
5
11C
100
AcDbEntity
8
0
6
ByLayer
62
0
370
-1
100
AcDbLine
10
-5.33640068907
20
-14.2478194696
11
-5.00263521842
21
-13.936430777
0
LINE
5
11D
100
AcDbEntity
8
0
6
ByLayer
62
0
370
-1
100
AcDbLine
10
-2.59001031068
20
15.4475475259
11
-2.98236479589
21
15.8722399246
0
LINE
5
11E
100
AcDbEntity
8
0
6
ByLayer
62
0
370
-1
100
AcDbLine
10
-5.73755634011
20
-14.5744751267
11
-5.33640068907
21
-14.2478194696
0
ARC
5
11F
100
AcDbEntity
8
0
6
ByLayer
62
0
370
-1
100
AcDbCircle
10
5.01554353605e-12
20
-2.36637376361e-11
40
16.15
100
AcDbArc
50
100.641692211
51
103.388116557
0
LINE
5
120
100
AcDbEntity
8
0
6
ByLayer
62
0
370
-1
100
AcDbLine
10
-6.20946170698
20
-14.9085574523
11
-5.73755634011
21
-14.5744751267
0
LINE
5
121
100
AcDbEntity
8
0
6
ByLayer
62
0
370
-1
100
AcDbLine
10
-3.73947015657
20
15.7111063566
11
-3.92488095404
21
15.1634490625
0
ARC
5
122
100
AcDbEntity
8
0
6
ByLayer
62
0
370
-1
100
AcDbCircle
10
1.0126122163e-11
20
2.2724044868e-11
40
16.15
100
AcDbArc
50
-115.358307789
51
-112.611883443
0
LINE
5
123
100
AcDbEntity
8
0
6
ByLayer
62
0
370
-1
100
AcDbLine
10
-3.92488095404
20
15.1634490625
11
-4.05741931528
21
14.663385709
0
LINE
5
124
100
AcDbEntity
8
0
6
ByLayer
62
0
370
-1
100
AcDbLine
10
-6.98447826287
20
-14.0196983338
11
-6.91668474523
21
-14.5939018818
0
LINE
5
125
100
AcDbEntity
8
0
6
ByLayer
62
0
370
-1
100
AcDbLine
10
-4.05741931528
20
14.663385709
11
-4.14441157197
21
14.2152845435
0
LINE
5
126
100
AcDbEntity
8
0
6
ByLayer
62
0
370
-1
100
AcDbLine
10
-7.0104201369
20
-13.5030197162
11
-6.98447826287
21
-14.0196983338
0
LINE
5
127
100
AcDbEntity
8
0
6
ByLayer
62
0
370
-1
100
AcDbLine
10
-4.14441157197
20
14.2152845435
11
-4.19351421669
21
13.8227387456
0
LINE
5
128
100
AcDbEntity
8
0
6
ByLayer
62
0
370
-1
100
AcDbLine
10
-7.00258337916
20
-13.0466197902
11
-7.0104201369
21
-13.5030197162
0
LINE
5
129
100
AcDbEntity
8
0
6
ByLayer
62
0
370
-1
100
AcDbLine
10
-4.19351421669
20
13.8227387456
11
-4.21264252002
21
13.4885430235
0
LINE
5
12A
100
AcDbEntity
8
0
6
ByLayer
62
0
370
-1
100
AcDbLine
10
-6.96920323208
20
-12.6524256261
11
-7.00258337916
21
-13.0466197902
0
LINE
5
12B
100
AcDbEntity
8
0
6
ByLayer
62
0
370
-1
100
AcDbLine
10
-4.21264252002
20
13.4885430235
11
-4.2098975781
21
13.214676321
0
LINE
5
12C
100
AcDbEntity
8
0
6
ByLayer
62
0
370
-1
100
AcDbLine
10
-6.91860248399
20
-12.3215295141
11
-6.96920323208
21
-12.6524256261
0
LINE
5
12D
100
AcDbEntity
8
0
6
ByLayer
62
0
370
-1
100
AcDbLine
10
-4.2098975781
20
13.214676321
11
-4.19349229028
21
13.0022907324
0
LINE
5
12E
100
AcDbEntity
8
0
6
ByLayer
62
0
370
-1
100
AcDbLine
10
-6.85911651623
20
-12.0541871772
11
-6.91860248399
21
-12.3215295141
0
LINE
5
12F
100
AcDbEntity
8
0
6
ByLayer
62
0
370
-1
100
AcDbLine
10
-4.19349229028
20
13.0022907324
11
-4.17167677236
21
12.8517066874
0
LINE
5
130
100
AcDbEntity
8
0
6
ByLayer
62
0
370
-1
100
AcDbLine
10
-6.79901859145
20
-11.8498222801
11
-6.85911651623
21
-12.0541871772
0
LINE
5
131
100
AcDbEntity
8
0
6
ByLayer
62
0
370
-1
100
AcDbLine
10
-4.17167677236
20
12.8517066874
11
-4.15266371365
21
12.7624144247
0
LINE
5
132
100
AcDbEntity
8
0
6
ByLayer
62
0
370
-1
100
AcDbLine
10
-6.74644588994
20
-11.7070371882
11
-6.79901859145
21
-11.8498222801
0
LINE
5
133
100
AcDbEntity
8
0
6
ByLayer
62
0
370
-1
100
AcDbLine
10
-4.15266371365
20
12.7624144247
11
-4.14455418595
21
12.7330817348
0
LINE
5
134
100
AcDbEntity
8
0
6
ByLayer
62
0
370
-1
100
AcDbLine
10
-6.70932679543
20
-11.62362989
11
-6.74644588994
21
-11.7070371882
0
LINE
5
135
100
AcDbEntity
8
0
6
ByLayer
62
0
370
-1
100
AcDbLine
10
-4.14455418595
20
12.7330817348
11
-3.4046292531
21
10.4598517986
0
LINE
5
136
100
AcDbEntity
8
0
6
ByLayer
62
0
370
-1
100
AcDbLine
10
-6.6953099231
20
-11.5966169592
11
-6.70932679543
21
-11.62362989
0
ARC
5
137
100
AcDbEntity
8
0
6
ByLayer
62
0
370
-1
100
AcDbCircle
10
2.9620750297e-13
20
-6.48370246381e-13
40
11
100
AcDbArc
50
108.029808768
51
120
0
LINE
5
138
100
AcDbEntity
8
0
6
ByLayer
62
0
370
-1
100
AcDbLine
10
-5.5
20
-9.52627944163
11
-6.6953099231
21
-11.5966169592
0
LINE
5
139
100
AcDbEntity
8
0
6
ByLayer
62
0
370
-1
100
AcDbLine
10
-5.5
20
9.52627944163
11
-6.6953099231
21
11.5966169592
0
ARC
5
13A
100
AcDbEntity
8
0
6
ByLayer
62
0
370
-1
100
AcDbCircle
10
5.28466159722e-13
20
7.28306304154e-13
40
11
100
AcDbArc
50
-131.970191232
51
-120
0
LINE
5
13B
100
AcDbEntity
8
0
6
ByLayer
62
0
370
-1
100
AcDbLine
10
-6.6953099231
20
11.5966169592
11
-6.71169537118
21
11.6222623921
0
LINE
5
13C
100
AcDbEntity
8
0
6
ByLayer
62
0
370
-1
100
AcDbLine
10
-8.95489515782
20
-9.9558300798
11
-7.35618275087
21
-8.17842132296
0
LINE
5
13D
100
AcDbEntity
8
0
6
ByLayer
62
0
370
-1
100
AcDbLine
10
-6.71169537118
20
11.6222623921
11
-6.76536866302
21
11.69611212
0
LINE
5
13E
100
AcDbEntity
8
0
6
ByLayer
62
0
370
-1
100
AcDbLine
10
-8.9762432486
20
-9.97751948175
11
-8.95489515782
21
-9.9558300798
0
LINE
5
13F
100
AcDbEntity
8
0
6
ByLayer
62
0
370
-1
100
AcDbLine
10
-6.76536866302
20
11.69611212
11
-6.8627378292
21
11.8130339611
0
LINE
5
140
100
AcDbEntity
8
0
6
ByLayer
62
0
370
-1
100
AcDbLine
10
-9.04406608706
20
-10.0386314049
11
-8.9762432486
21
-9.97751948175
0
LINE
5
141
100
AcDbEntity
8
0
6
ByLayer
62
0
370
-1
100
AcDbLine
10
-6.8627378292
20
11.8130339611
11
-7.00967405934
21
11.9672627392
0
LINE
5
142
100
AcDbEntity
8
0
6
ByLayer
62
0
370
-1
100
AcDbLine
10
-9.16356793648
20
-10.1328162201
11
-9.04406608706
21
-10.0386314049
0
LINE
5
143
100
AcDbEntity
8
0
6
ByLayer
62
0
370
-1
100
AcDbLine
10
-7.00967405934
20
11.9672627392
11
-7.21145633072
21
12.1524502669
0
LINE
5
144
100
AcDbEntity
8
0
6
ByLayer
62
0
370
-1
100
AcDbLine
10
-9.33929660773
20
-10.2532164105
11
-9.16356793648
21
-10.1328162201
0
LINE
5
145
100
AcDbEntity
8
0
6
ByLayer
62
0
370
-1
100
AcDbLine
10
-7.21145633072
20
12.1524502669
11
-7.47272039565
21
12.3617198562
0
LINE
5
146
100
AcDbEntity
8
0
6
ByLayer
62
0
370
-1
100
AcDbLine
10
-9.57509965841
20
-10.3925269512
11
-9.33929660773
21
-10.2532164105
0
LINE
5
147
100
AcDbEntity
8
0
6
ByLayer
62
0
370
-1
100
AcDbLine
10
-7.47272039565
20
12.3617198562
11
-7.79741248223
21
12.5877249936
0
LINE
5
148
100
AcDbEntity
8
0
6
ByLayer
62
0
370
-1
100
AcDbLine
10
-9.8740857952
20
-10.5430592156
11
-9.57509965841
21
-10.3925269512
0
LINE
5
149
100
AcDbEntity
8
0
6
ByLayer
62
0
370
-1
100
AcDbLine
10
-7.79741248223
20
12.5877249936
11
-8.18874803357
21
12.8227117878
0
LINE
5
14A
100
AcDbEntity
8
0
6
ByLayer
62
0
370
-1
100
AcDbLine
10
-10.2385917507
20
-10.6968079768
11
-9.8740857952
21
-10.5430592156
0
LINE
5
14B
100
AcDbEntity
8
0
6
ByLayer
62
0
370
-1
100
AcDbLine
10
-8.18874803357
20
12.8227117878
11
-8.64917577901
21
13.0585847747
0
LINE
5
14C
100
AcDbEntity
8
0
6
ByLayer
62
0
370
-1
100
AcDbLine
10
-10.6701548719
20
-10.8455210554
11
-10.2385917507
21
-10.6968079768
0
LINE
5
14D
100
AcDbEntity
8
0
6
ByLayer
62
0
370
-1
100
AcDbLine
10
-8.64917577901
20
13.0585847747
11
-9.18034739735
21
13.2869756402
0
LINE
5
14E
100
AcDbEntity
8
0
6
ByLayer
62
0
370
-1
100
AcDbLine
10
-11.1694916201
20
-10.9807711443
11
-10.6701548719
21
-10.8455210554
0
ARC
5
14F
100
AcDbEntity
8
0
6
ByLayer
62
0
370
-1
100
AcDbCircle
10
1.42978962003e-11
20
-1.96918037432e-11
40
16.15
100
AcDbArc
50
124.641692211
51
127.388116557
0
LINE
5
150
100
AcDbEntity
8
0
6
ByLayer
62
0
370
-1
100
AcDbLine
10
-11.7364821481
20
-11.0940293306
11
-11.1694916201
21
-10.9807711443
0
LINE
5
151
100
AcDbEntity
8
0
6
ByLayer
62
0
370
-1
100
AcDbLine
10
-9.80645863401
20
12.8318303082
11
-9.75308753648
21
12.2561071095
0
ARC
5
152
100
AcDbEntity
8
0
6
ByLayer
62
0
370
-1
100
AcDbCircle
10
1.68824954017e-11
20
1.50963685996e-11
40
16.15
100
AcDbArc
50
-139.358307789
51
-136.611883443
0
LINE
5
153
100
AcDbEntity
8
0
6
ByLayer
62
0
370
-1
100
AcDbLine
10
-9.75308753648
20
12.2561071095
11
-9.67077326464
21
11.7453682963
0
LINE
5
154
100
AcDbEntity
8
0
6
ByLayer
62
0
370
-1
100
AcDbLine
10
-12.0829634283
20
-9.96678848806
11
-12.2545805917
21
-10.5189236389
0
LINE
5
155
100
AcDbEntity
8
0
6
ByLayer
62
0
370
-1
100
AcDbLine
10
-9.67077326464
20
11.7453682963
11
-9.56798548177
21
11.3006245735
0
LINE
5
156
100
AcDbEntity
8
0
6
ByLayer
62
0
370
-1
100
AcDbLine
10
-11.896510383
20
-9.48422757315
11
-12.0829634283
21
-9.96678848806
0
LINE
5
157
100
AcDbEntity
8
0
6
ByLayer
62
0
370
-1
100
AcDbLine
10
-9.56798548177
20
11.3006245735
11
-9.4531802197
21
10.922044298
0
LINE
5
158
100
AcDbEntity
8
0
6
ByLayer
62
0
370
-1
100
AcDbLine
10
-11.7037165747
20
-9.07047299041
11
-11.896510383
21
-9.48422757315
0
LINE
5
159
100
AcDbEntity
8
0
6
ByLayer
62
0
370
-1
100
AcDbLine
10
-9.4531802197
20
10.922044298
11
-9.33472514821
21
10.6089611323
0
LINE
5
15A
100
AcDbEntity
8
0
6
ByLayer
62
0
370
-1
100
AcDbLine
10
-11.512889082
20
-8.72393563135
11
-11.7037165747
21
-9.07047299041
0
LINE
5
15B
100
AcDbEntity
8
0
6
ByLayer
62
0
370
-1
100
AcDbLine
10
-9.33472514821
20
10.6089611323
11
-9.22082589575
21
10.3598879187
0
LINE
5
15C
100
AcDbEntity
8
0
6
ByLayer
62
0
370
-1
100
AcDbLine
10
-11.3320754246
20
-8.44222816973
11
-11.512889082
21
-8.72393563135
0
LINE
5
15D
100
AcDbEntity
8
0
6
ByLayer
62
0
370
-1
100
AcDbLine
10
-9.22082589575
20
10.3598879187
11
-9.11945391822
21
10.1725366606
0
LINE
5
15E
100
AcDbEntity
8
0
6
ByLayer
62
0
370
-1
100
AcDbLine
10
-11.1689943643
20
-8.22219391505
11
-11.3320754246
21
-8.44222816973
0
LINE
5
15F
100
AcDbEntity
8
0
6
ByLayer
62
0
370
-1
100
AcDbLine
10
-9.11945391822
20
10.1725366606
11
-9.03827640195
21
10.0438444608
0
LINE
5
160
100
AcDbEntity
8
0
6
ByLayer
62
0
370
-1
100
AcDbLine
10
-11.0309694859
20
-8.05994131979
11
-11.1689943643
21
-8.22219391505
0
LINE
5
161
100
AcDbEntity
8
0
6
ByLayer
62
0
370
-1
100
AcDbLine
10
-9.03827640195
20
10.0438444608
11
-8.98458867337
21
9.97000522754
0
LINE
5
162
100
AcDbEntity
8
0
6
ByLayer
62
0
370
-1
100
AcDbLine
10
-10.9248660043
20
-7.95088389173
11
-11.0309694859
21
-8.05994131979
0
LINE
5
163
100
AcDbEntity
8
0
6
ByLayer
62
0
370
-1
100
AcDbLine
10
-8.98458867337
20
9.97000522754
11
-8.96524957135
21
9.94650692398
0
LINE
5
164
100
AcDbEntity
8
0
6
ByLayer
62
0
370
-1
100
AcDbLine
10
-10.8570312196
20
-7.88978522922
11
-10.9248660043
21
-7.95088389173
0
LINE
5
165
100
AcDbEntity
8
0
6
ByLayer
62
0
370
-1
100
AcDbLine
10
-8.96524957135
20
9.94650692398
11
-7.36468859676
21
8.17076262491
0
LINE
5
166
100
AcDbEntity
8
0
6
ByLayer
62
0
370
-1
100
AcDbLine
10
-10.8332390208
20
-7.87080886465
11
-10.8570312196
21
-7.88978522922
0
ARC
5
167
100
AcDbEntity
8
0
6
ByLayer
62
0
370
-1
100
AcDbCircle
10
5.71986902287e-13
20
-5.16919840265e-13
40
11
100
AcDbArc
50
132.029808768
51
144
0
LINE
5
168
100
AcDbEntity
8
0
6
ByLayer
62
0
370
-1
100
AcDbLine
10
-8.89918693812
20
-6.46563777522
11
-10.8332390208
21
-7.87080886465
0
LINE
5
169
100
AcDbEntity
8
0
6
ByLayer
62
0
370
-1
100
AcDbLine
10
-8.89918693812
20
6.46563777522
11
-10.8332390208
21
7.87080886465
0
ARC
5
16A
100
AcDbEntity
8
0
6
ByLayer
62
0
370
-1
100
AcDbCircle
10
7.36299909931e-13
20
4.33875158024e-13
40
11
100
AcDbArc
50
-155.970191232
51
-144
0
LINE
5
16B
100
AcDbEntity
8
0
6
ByLayer
62
0
370
-1
100
AcDbLine
10
-10.8332390208
20
7.87080886465
11
-10.8586388097
21
7.88757257123
0
LINE
5
16C
100
AcDbEntity
8
0
6
ByLayer
62
0
370
-1
100
AcDbLine
10
-12.2301047008
20
-5.45281935087
11
-10.0466709722
21
-4.47933057233
0
LINE
5
16D
100
AcDbEntity
8
0
6
ByLayer
62
0
370
-1
100
AcDbLine
10
-10.8586388097
20
7.88757257123
11
-10.9377091921
21
7.93320676016
0
LINE
5
16E
100
AcDbEntity
8
0
6
ByLayer
62
0
370
-1
100
AcDbLine
10
-12.2584290267
20
-5.46395055473
11
-12.2301047008
21
-5.45281935087
0
LINE
5
16F
100
AcDbEntity
8
0
6
ByLayer
62
0
370
-1
100
AcDbLine
10
-10.9377091921
20
7.93320676016
11
-11.0742167487
21
8.00041656915
0
LINE
5
170
100
AcDbEntity
8
0
6
ByLayer
62
0
370
-1
100
AcDbLine
10
-12.3452447312
20
-5.4921930409
11
-12.2584290267
21
-5.46395055473
0
LINE
5
171
100
AcDbEntity
8
0
6
ByLayer
62
0
370
-1
100
AcDbLine
10
-11.0742167487
20
8.00041656915
11
-11.2711801698
21
8.08154721985
0
LINE
5
172
100
AcDbEntity
8
0
6
ByLayer
62
0
370
-1
100
AcDbLine
10
-12.4927235185
20
-5.52962936995
11
-12.3452447312
21
-5.4921930409
0
LINE
5
173
100
AcDbEntity
8
0
6
ByLayer
62
0
370
-1
100
AcDbLine
10
-11.2711801698
20
8.08154721985
11
-11.5308400006
21
8.1686522009
0
LINE
5
174
100
AcDbEntity
8
0
6
ByLayer
62
0
370
-1
100
AcDbLine
10
-12.7022308171
20
-5.56814512709
11
-12.4927235185
21
-5.52962936995
0
LINE
5
175
100
AcDbEntity
8
0
6
ByLayer
62
0
370
-1
100
AcDbLine
10
-11.5308400006
20
8.1686522009
11
-11.8546342106
21
8.25356381488
0
LINE
5
176
100
AcDbEntity
8
0
6
ByLayer
62
0
370
-1
100
AcDbLine
10
-12.9743103246
20
-5.59950189749
11
-12.7022308171
21
-5.56814512709
0
LINE
5
177
100
AcDbEntity
8
0
6
ByLayer
62
0
370
-1
100
AcDbLine
10
-11.8546342106
20
8.25356381488
11
-12.2431797623
21
8.32796561222
0
LINE
5
178
100
AcDbEntity
8
0
6
ByLayer
62
0
370
-1
100
AcDbLine
10
-13.3086747397
20
-5.61541134626
11
-12.9743103246
21
-5.59950189749
0
LINE
5
179
100
AcDbEntity
8
0
6
ByLayer
62
0
370
-1
100
AcDbLine
10
-12.2431797623
20
8.32796561222
11
-12.6962603176
21
8.38346622228
0
LINE
5
17A
100
AcDbEntity
8
0
6
ByLayer
62
0
370
-1
100
AcDbLine
10
-13.7042027547
20
-5.60760989999
11
-13.3086747397
21
-5.61541134626
0
LINE
5
17B
100
AcDbEntity
8
0
6
ByLayer
62
0
370
-1
100
AcDbLine
10
-12.6962603176
20
8.38346622228
11
-13.2128201798
21
8.41167408245
0
LINE
5
17C
100
AcDbEntity
8
0
6
ByLayer
62
0
370
-1
100
AcDbLine
10
-14.158942342
20
-5.5679335222
11
-13.7042027547
21
-5.60760989999
0
LINE
5
17D
100
AcDbEntity
8
0
6
ByLayer
62
0
370
-1
100
AcDbLine
10
-13.2128201798
20
8.41167408245
11
-13.790964533
21
8.40427255927
0
LINE
5
17E
100
AcDbEntity
8
0
6
ByLayer
62
0
370
-1
100
AcDbLine
10
-14.6701203273
20
-5.48839207384
11
-14.158942342
21
-5.5679335222
0
ARC
5
17F
100
AcDbEntity
8
0
6
ByLayer
62
0
370
-1
100
AcDbCircle
10
2.63176147541e-11
20
-1.52193813108e-11
40
16.15
100
AcDbArc
50
148.641692211
51
151.388116557
0
LINE
5
180
100
AcDbEntity
8
0
6
ByLayer
62
0
370
-1
100
AcDbLine
10
-15.2341582032
20
-5.36124275147
11
-14.6701203273
21
-5.48839207384
0
LINE
5
181
100
AcDbEntity
8
0
6
ByLayer
62
0
370
-1
100
AcDbLine
10
-14.1778213248
20
7.73381422607
11
-13.8948966798
21
7.22957289408
0
ARC
5
182
100
AcDbEntity
8
0
6
ByLayer
62
0
370
-1
100
AcDbCircle
10
2.04796180014e-11
20
6.61781740519e-12
40
16.15
100
AcDbArc
50
-163.358307789
51
-160.611883443
0
LINE
5
183
100
AcDbEntity
8
0
6
ByLayer
62
0
370
-1
100
AcDbLine
10
-13.8948966798
20
7.22957289408
11
-13.6119626603
21
6.79647000181
0
LINE
5
184
100
AcDbEntity
8
0
6
ByLayer
62
0
370
-1
100
AcDbLine
10
-15.0921944466
20
-4.19053036733
11
-15.4735481245
21
-4.62512793743
0
LINE
5
185
100
AcDbEntity
8
0
6
ByLayer
62
0
370
-1
100
AcDbLine
10
-13.6119626603
20
6.79647000181
11
-13.3371677794
21
6.43198395182
0
LINE
5
186
100
AcDbEntity
8
0
6
ByLayer
62
0
370
-1
100
AcDbLine
10
-14.7255859074
20
-3.82552632121
11
-15.0921944466
21
-4.19053036733
0
LINE
5
187
100
AcDbEntity
8
0
6
ByLayer
62
0
370
-1
100
AcDbLine
10
-13.3371677794
20
6.43198395182
11
-13.0783054833
21
6.13282916767
0
LINE
5
188
100
AcDbEntity
8
0
6
ByLayer
62
0
370
-1
100
AcDbLine
10
-14.3811708496
20
-3.52595900794
11
-14.7255859074
21
-3.82552632121
0
LINE
5
189
100
AcDbEntity
8
0
6
ByLayer
62
0
370
-1
100
AcDbLine
10
-13.0783054833
20
6.13282916767
11
-12.842748995
21
5.89499348189
0
LINE
5
18A
100
AcDbEntity
8
0
6
ByLayer
62
0
370
-1
100
AcDbLine
10
-14.0658918183
20
-3.28699791148
11
-14.3811708496
21
-3.52595900794
0
LINE
5
18B
100
AcDbEntity
8
0
6
ByLayer
62
0
370
-1
100
AcDbLine
10
-12.842748995
20
5.89499348189
11
-12.6373896475
21
5.71378077855
0
LINE
5
18C
100
AcDbEntity
8
0
6
ByLayer
62
0
370
-1
100
AcDbLine
10
-13.7861295757
20
-3.10318887954
11
-14.0658918183
21
-3.28699791148
0
LINE
5
18D
100
AcDbEntity
8
0
6
ByLayer
62
0
370
-1
100
AcDbLine
10
-12.6373896475
20
5.71378077855
11
-12.4685791161
21
5.5838585856
0
LINE
5
18E
100
AcDbEntity
8
0
6
ByLayer
62
0
370
-1
100
AcDbLine
10
-13.5476516197
20
-2.96850862868
11
-13.7861295757
21
-3.10318887954
0
LINE
5
18F
100
AcDbEntity
8
0
6
ByLayer
62
0
370
-1
100
AcDbLine
10
-12.4685791161
20
5.5838585856
11
-12.3420759315
21
5.49931028151
0
LINE
5
190
100
AcDbEntity
8
0
6
ByLayer
62
0
370
-1
100
AcDbLine
10
-13.355565543
20
-2.87642328299
11
-13.5476516197
21
-2.96850862868
0
LINE
5
191
100
AcDbEntity
8
0
6
ByLayer
62
0
370
-1
100
AcDbLine
10
-12.3420759315
20
5.49931028151
11
-12.262996629
21
5.45369155186
0
LINE
5
192
100
AcDbEntity
8
0
6
ByLayer
62
0
370
-1
100
AcDbLine
10
-13.2142775372
20
-2.8199505389
11
-13.355565543
21
-2.87642328299
0
LINE
5
193
100
AcDbEntity
8
0
6
ByLayer
62
0
370
-1
100
AcDbLine
10
-12.262996629
20
5.45369155186
11
-12.2357718591
21
5.44009070482
0
LINE
5
194
100
AcDbEntity
8
0
6
ByLayer
62
0
370
-1
100
AcDbLine
10
-13.1274563129
20
-2.7917250259
11
-13.2142775372
21
-2.8199505389
0
LINE
5
195
100
AcDbEntity
8
0
6
ByLayer
62
0
370
-1
100
AcDbLine
10
-12.2357718591
20
5.44009070482
11
-10.051326376
21
4.46887436432
0
LINE
5
196
100
AcDbEntity
8
0
6
ByLayer
62
0
370
-1
100
AcDbLine
10
-13.0980026749
20
-2.78406641332
11
-13.1274563129
21
-2.7917250259
0
ARC
5
197
100
AcDbEntity
8
0
6
ByLayer
62
0
370
-1
100
AcDbCircle
10
9.24593734908e-13
20
-2.99538172044e-13
40
11
100
AcDbArc
50
156.029808768
51
168
0
LINE
5
198
100
AcDbEntity
8
0
6
ByLayer
62
0
370
-1
100
AcDbLine
10
-10.7596236081
20
-2.287028599
11
-13.0980026749
21
-2.78406641332
0
LINE
5
199
100
AcDbEntity
8
0
6
ByLayer
62
0
370
-1
100
AcDbLine
10
-10.7596236081
20
2.287028599
11
-13.0980026749
21
2.78406641332
0
ARC
5
19A
100
AcDbEntity
8
0
6
ByLayer
62
0
370
-1
100
AcDbCircle
10
1.01163522004e-12
20
1.06803454969e-13
40
11
100
AcDbArc
50
-179.970191232
51
-168
0
LINE
5
19B
100
AcDbEntity
8
0
6
ByLayer
62
0
370
-1
100
AcDbLine
10
-13.0980026749
20
2.78406641332
11
-13.1280249505
21
2.78904979643
0
LINE
5
19C
100
AcDbEntity
8
0
6
ByLayer
62
0
370
-1
100
AcDbLine
10
-13.390618034
20
-0.00696661887148
11
-10.9999985113
21
-0.00572287231409
0
LINE
5
19D
100
AcDbEntity
8
0
6
ByLayer
62
0
370
-1
100
AcDbLine
10
-13.1280249505
20
2.78904979643
11
-13.2188204359
21
2.79857788054
0
LINE
5
19E
100
AcDbEntity
8
0
6
ByLayer
62
0
370
-1
100
AcDbLine
10
-13.4210210617
20
-0.00561493835631
11
-13.390618034
21
-0.00696661887148
0
LINE
5
19F
100
AcDbEntity
8
0
6
ByLayer
62
0
370
-1
100
AcDbLine
10
-13.2188204359
20
2.79857788054
11
-13.3708629863
21
2.80445447093
0
LINE
5
1A0
100
AcDbEntity
8
0
6
ByLayer
62
0
370
-1
100
AcDbLine
10
-13.5118184082
20
0.00389539488811
11
-13.4210210617
21
-0.00561493835631
0
LINE
5
1A1
100
AcDbEntity
8
0
6
ByLayer
62
0
370
-1
100
AcDbLine
10
-13.3708629863
20
2.80445447093
11
-13.5837968335
21
2.79845876765
0
LINE
5
1A2
100
AcDbEntity
8
0
6
ByLayer
62
0
370
-1
100
AcDbLine
10
-13.6617737113
20
0.0296806333999
11
-13.5118184082
21
0.00389539488811
0
LINE
5
1A3
100
AcDbEntity
8
0
6
ByLayer
62
0
370
-1
100
AcDbLine
10
-13.5837968335
20
2.79845876765
11
-13.85643668
21
2.7724199595
0
LINE
5
1A4
100
AcDbEntity
8
0
6
ByLayer
62
0
370
-1
100
AcDbLine
10
-13.868833922
20
0.0797090337666
11
-13.6617737113
21
0.0296806333999
0
LINE
5
1A5
100
AcDbEntity
8
0
6
ByLayer
62
0
370
-1
100
AcDbLine
10
-13.85643668
20
2.7724199595
11
-14.1867740746
21
2.71829160873
0
LINE
5
1A6
100
AcDbEntity
8
0
6
ByLayer
62
0
370
-1
100
AcDbLine
10
-14.1301448678
20
0.161727904141
11
-13.868833922
21
0.0797090337666
0
LINE
5
1A7
100
AcDbEntity
8
0
6
ByLayer
62
0
370
-1
100
AcDbLine
10
-14.1867740746
20
2.71829160873
11
-14.5719900358
21
2.62822531934
0
LINE
5
1A8
100
AcDbEntity
8
0
6
ByLayer
62
0
370
-1
100
AcDbLine
10
-14.4420729161
20
0.28319215923
11
-14.1301448678
21
0.161727904141
0
LINE
5
1A9
100
AcDbEntity
8
0
6
ByLayer
62
0
370
-1
100
AcDbLine
10
-14.5719900358
20
2.62822531934
11
-15.0084738508
21
2.49464318548
0
LINE
5
1AA
100
AcDbEntity
8
0
6
ByLayer
62
0
370
-1
100
AcDbLine
10
-14.8002326035
20
0.451194872097
11
-14.4420729161
21
0.28319215923
0
LINE
5
1AB
100
AcDbEntity
8
0
6
ByLayer
62
0
370
-1
100
AcDbLine
10
-15.0084738508
20
2.49464318548
11
-15.4918479369
21
2.31030852368
0
LINE
5
1AC
100
AcDbEntity
8
0
6
ByLayer
62
0
370
-1
100
AcDbLine
10
-15.1995200512
20
0.672400300022
11
-14.8002326035
21
0.451194872097
0
LINE
5
1AD
100
AcDbEntity
8
0
6
ByLayer
62
0
370
-1
100
AcDbLine
10
-15.4918479369
20
2.31030852368
11
-16.0169986139
21
2.0683944024
0
LINE
5
1AE
100
AcDbEntity
8
0
6
ByLayer
62
0
370
-1
100
AcDbLine
10
-15.6341519561
20
0.952979846634
11
-15.1995200512
21
0.672400300022
0
ARC
5
1AF
100
AcDbEntity
8
0
6
ByLayer
62
0
370
-1
100
AcDbCircle
10
2.92494917176e-11
20
-3.04944958174e-12
40
16.15
100
AcDbArc
50
172.641692211
51
175.388116557
0
LINE
5
1B0
100
AcDbEntity
8
0
6
ByLayer
62
0
370
-1
100
AcDbLine
10
-16.097709907
20
1.29855140472
11
-15.6341519561
21
0.952979846634
0
CIRCLE
5
1B1
100
AcDbEntity
8
0
6
ByLayer
62
0
370
-1
100
AcDbCircle
10
0
20
0
40
2.6
0
ENDBLK
5
48
330
46
100
AcDbEntity
8
0
100
AcDbBlockEnd
0
ENDSEC
0
SECTION
2
ENTITIES
0
LINE
5
1B2
100
AcDbEntity
8
0
6
ByLayer
62
256
370
-1
100
AcDbLine
10
11
20
0
11
13.3906198462
21
0
0
ARC
5
1B3
100
AcDbEntity
8
0
6
ByLayer
62
256
370
-1
100
AcDbCircle
10
-1.09423581307e-12
20
1.11910480882e-13
40
11
100
AcDbArc
50
348.029808768
51
0
0
LINE
5
1B4
100
AcDbEntity
8
0
6
ByLayer
62
256
370
-1
100
AcDbLine
10
13.3906198462
20
0
11
13.4210221666
21
0.00136749784549
0
LINE
5
1B5
100
AcDbEntity
8
0
6
ByLayer
62
256
370
-1
100
AcDbLine
10
13.0994493438
20
-2.777251655
11
10.760812004
21
-2.28143047566
0
LINE
5
1B6
100
AcDbEntity
8
0
6
ByLayer
62
256
370
-1
100
AcDbLine
10
13.4210221666
20
0.00136749784549
11
13.511814553
21
0.010925068132
0
LINE
5
1B7
100
AcDbEntity
8
0
6
ByLayer
62
256
370
-1
100
AcDbLine
10
13.1289069623
20
-2.78489494296
11
13.0994493438
21
-2.777251655
0
LINE
5
1B8
100
AcDbEntity
8
0
6
ByLayer
62
256
370
-1
100
AcDbLine
10
13.511814553
20
0.010925068132
11
13.6617564206
21
0.0367883190679
0
LINE
5
1B9
100
AcDbEntity
8
0
6
ByLayer
62
256
370
-1
100
AcDbLine
10
13.2157428594
20
-2.81307528244
11
13.1289069623
21
-2.78489494296
0
LINE
5
1BA
100
AcDbEntity
8
0
6
ByLayer
62
256
370
-1
100
AcDbLine
10
13.6617564206
20
0.0367883190679
11
13.8687905756
21
0.086924438041
0
LINE
5
1BB
100
AcDbEntity
8
0
6
ByLayer
62
256
370
-1
100
AcDbLine
10
13.3570602268
20
-2.86947451223
11
13.2157428594
21
-2.81307528244
0
LINE
5
1BC
100
AcDbEntity
8
0
6
ByLayer
62
256
370
-1
100
AcDbLine
10
13.8687905756
20
0.086924438041
11
14.1300588147
21
0.169079247241
0
LINE
5
1BD
100
AcDbEntity
8
0
6
ByLayer
62
256
370
-1
100
AcDbLine
10
13.5491941858
20
-2.96145991054
11
13.3570602268
21
-2.86947451223
0
LINE
5
1BE
100
AcDbEntity
8
0
6
ByLayer
62
256
370
-1
100
AcDbLine
10
14.1300588147
20
0.169079247241
11
14.4419236277
21
0.290705769927
0
LINE
5
1BF
100
AcDbEntity
8
0
6
ByLayer
62
256
370
-1
100
AcDbLine
10
13.7877421784
20
-3.09601607236
11
13.5491941858
21
-2.96145991054
0
LINE
5
1C0
100
AcDbEntity
8
0
6
ByLayer
62
256
370
-1
100
AcDbLine
10
14.4419236277
20
0.290705769927
11
14.7999958614
21
0.458894796617
0
LINE
5
1C1
100
AcDbEntity
8
0
6
ByLayer
62
256
370
-1
100
AcDbLine
10
14.0676000119
20
-3.27967953
11
13.7877421784
21
-3.09601607236
0
LINE
5
1C2
100
AcDbEntity
8
0
6
ByLayer
62
256
370
-1
100
AcDbLine
10
14.7999958614
20
0.458894796617
11
15.1991681705
21
0.680307928339
0
LINE
5
1C3
100
AcDbEntity
8
0
6
ByLayer
62
256
370
-1
100
AcDbLine
10
14.3830033227
20
-3.5184765667
11
14.0676000119
21
-3.27967953
0
LINE
5
1C4
100
AcDbEntity
8
0
6
ByLayer
62
256
370
-1
100
AcDbLine
10
15.1991681705
20
0.680307928339
11
15.6336540419
21
0.96111355906
0
LINE
5
1C5
100
AcDbEntity
8
0
6
ByLayer
62
256
370
-1
100
AcDbLine
10
14.7275741871
20
-3.81786465367
11
14.3830033227
21
-3.5184765667
0
LINE
5
1C6
100
AcDbEntity
8
0
6
ByLayer
62
256
370
-1
100
AcDbLine
10
15.6336540419
20
0.96111355906
11
16.0970321426
21
1.30692624156
0
LINE
5
1C7
100
AcDbEntity
8
0
6
ByLayer
62
256
370
-1
100
AcDbLine
10
15.0943725741
20
-4.18267791823
11
14.7275741871
21
-3.81786465367
0
ARC
5
1C8
100
AcDbEntity
8
0
6
ByLayer
62
256
370
-1
100
AcDbCircle
10
-2.93702839826e-11
20
-2.91577872957e-12
40
16.15
100
AcDbArc
50
4.64169221092
51
7.38811655681
0
LINE
5
1C9
100
AcDbEntity
8
0
6
ByLayer
62
256
370
-1
100
AcDbLine
10
15.4759523047
20
-4.61707702601
11
15.0943725741
21
-4.18267791823
0
LINE
5
1CA
100
AcDbEntity
8
0
6
ByLayer
62
256
370
-1
100
AcDbLine
10
16.015920341
20
2.0767271441
11
15.4906438766
21
2.31836801716
0
ARC
5
1CB
100
AcDbEntity
8
0
6
ByLayer
62
256
370
-1
100
AcDbCircle
10
-2.32764918451e-11
20
7.59348139923e-12
40
16.15
100
AcDbArc
50
340.641692211
51
343.388116557
0
LINE
5
1CC
100
AcDbEntity
8
0
6
ByLayer
62
256
370
-1
100
AcDbLine
10
15.4906438766
20
2.31836801716
11
15.0071739537
21
2.50245117327
0
LINE
5
1CD
100
AcDbEntity
8
0
6
ByLayer
62
256
370
-1
100
AcDbLine
10
14.6729737389
20
-5.48075903784
11
15.2369453876
21
-5.35331628571
0
LINE
5
1CE
100
AcDbEntity
8
0
6
ByLayer
62
256
370
-1
100
AcDbLine
10
15.0071739537
20
2.50245117327
11
14.5706207002
21
2.63580620349
0
LINE
5
1CF
100
AcDbEntity
8
0
6
ByLayer
62
256
370
-1
100
AcDbLine
10
14.1618372051
20
-5.56056642147
11
14.6729737389
21
-5.48075903784
0
LINE
5
1D0
100
AcDbEntity
8
0
6
ByLayer
62
256
370
-1
100
AcDbLine
10
14.5706207002
20
2.63580620349
11
14.1853579332
21
2.72567206781
0
LINE
5
1D1
100
AcDbEntity
8
0
6
ByLayer
62
256
370
-1
100
AcDbLine
10
13.7071183214
20
-5.60047937721
11
14.1618372051
21
-5.56056642147
0
LINE
5
1D2
100
AcDbEntity
8
0
6
ByLayer
62
256
370
-1
100
AcDbLine
10
14.1853579332
20
2.72567206781
11
13.8549924224
21
2.77962854955
0
LINE
5
1D3
100
AcDbEntity
8
0
6
ByLayer
62
256
370
-1
100
AcDbLine
10
13.3115944187
20
-5.60848660027
11
13.7071183214
21
-5.60047937721
0
LINE
5
1D4
100
AcDbEntity
8
0
6
ByLayer
62
256
370
-1
100
AcDbLine
10
13.8549924224
20
2.77962854955
11
13.5823390658
21
2.80552551026
0
LINE
5
1D5
100
AcDbEntity
8
0
6
ByLayer
62
256
370
-1
100
AcDbLine
10
12.9772217718
20
-5.59275111046
11
13.3115944187
21
-5.60848660027
0
LINE
5
1D6
100
AcDbEntity
8
0
6
ByLayer
62
256
370
-1
100
AcDbLine
10
13.5823390658
20
2.80552551026
11
13.3694021281
21
2.81141043153
0
LINE
5
1D7
100
AcDbEntity
8
0
6
ByLayer
62
256
370
-1
100
AcDbLine
10
12.7051259874
20
-5.5615358967
11
12.9772217718
21
-5.59275111046
0
LINE
5
1D8
100
AcDbEntity
8
0
6
ByLayer
62
256
370
-1
100
AcDbLine
10
13.3694021281
20
2.81141043153
11
13.2173626557
21
2.80545474011
0
LINE
5
1D9
100
AcDbEntity
8
0
6
ByLayer
62
256
370
-1
100
AcDbLine
10
12.4955986789
20
-5.52312914327
11
12.7051259874
21
-5.5615358967
0
LINE
5
1DA
100
AcDbEntity
8
0
6
ByLayer
62
256
370
-1
100
AcDbLine
10
13.2173626557
20
2.80545474011
11
13.1265721396
21
2.79587941993
0
LINE
5
1DB
100
AcDbEntity
8
0
6
ByLayer
62
256
370
-1
100
AcDbLine
10
12.3481004349
20
-5.48576954677
11
12.4955986789
21
-5.52312914327
0
LINE
5
1DC
100
AcDbEntity
8
0
6
ByLayer
62
256
370
-1
100
AcDbLine
10
13.1265721396
20
2.79587941993
11
13.0965524608
21
2.79088041807
0
LINE
5
1DD
100
AcDbEntity
8
0
6
ByLayer
62
256
370
-1
100
AcDbLine
10
12.2612700487
20
-5.45757223125
11
12.3481004349
21
-5.48576954677
0
LINE
5
1DE
100
AcDbEntity
8
0
6
ByLayer
62
256
370
-1
100
AcDbLine
10
13.0965524608
20
2.79088041807
11
10.7584322999
21
2.2926261033
0
LINE
5
1DF
100
AcDbEntity
8
0
6
ByLayer
62
256
370
-1
100
AcDbLine
10
12.2329399355
20
-5.44645576495
11
12.2612700487
21
-5.45757223125
0
ARC
5
1E0
100
AcDbEntity
8
0
6
ByLayer
62
256
370
-1
100
AcDbCircle
10
-5.99520433298e-13
20
-2.00950367457e-13
40
11
100
AcDbArc
50
12.0298087677
51
24
0
LINE
5
1E1
100
AcDbEntity
8
0
6
ByLayer
62
256
370
-1
100
AcDbLine
10
10.0490000341
20
-4.47410307383
11
12.2329399355
21
-5.44645576495
0
LINE
5
1E2
100
AcDbEntity
8
0
6
ByLayer
62
256
370
-1
100
AcDbLine
10
10.0490000341
20
4.47410307383
11
12.2329399355
21
5.44645576495
0
ARC
5
1E3
100
AcDbEntity
8
0
6
ByLayer
62
256
370
-1
100
AcDbCircle
10
-3.01092484278e-13
20
1.61648472385e-13
40
11
100
AcDbArc
50
324.029808768
51
336
0
LINE
5
1E4
100
AcDbEntity
8
0
6
ByLayer
62
256
370
-1
100
AcDbLine
10
12.2329399355
20
5.44645576495
11
12.2601576257
21
5.46007077414
0
LINE
5
1E5
100
AcDbEntity
8
0
6
ByLayer
62
256
370
-1
100
AcDbLine
10
10.8373324305
20
-7.86517168639
11
8.90254955369
21
-6.46100699923
0
LINE
5
1E6
100
AcDbEntity
8
0
6
ByLayer
62
256
370
-1
100
AcDbLine
10
12.2601576257
20
5.46007077414
11
12.3392131838
21
5.5057306395
0
LINE
5
1E7
100
AcDbEntity
8
0
6
ByLayer
62
256
370
-1
100
AcDbLine
10
10.8611344988
20
-7.88413567024
11
10.8373324305
21
-7.86517168639
0
LINE
5
1E8
100
AcDbEntity
8
0
6
ByLayer
62
256
370
-1
100
AcDbLine
10
12.3392131838
20
5.5057306395
11
12.4656723641
21
5.59034474683
0
LINE
5
1E9
100
AcDbEntity
8
0
6
ByLayer
62
256
370
-1
100
AcDbLine
10
10.9290010615
20
-7.94519903267
11
10.8611344988
21
-7.88413567024
0
LINE
5
1EA
100
AcDbEntity
8
0
6
ByLayer
62
256
370
-1
100
AcDbLine
10
12.4656723641
20
5.59034474683
11
12.6344152792
21
5.72035474776
0
LINE
5
1EB
100
AcDbEntity
8
0
6
ByLayer
62
256
370
-1
100
AcDbLine
10
11.0351612671
20
-8.05420124446
11
10.9290010615
21
-7.94519903267
0
LINE
5
1EC
100
AcDbEntity
8
0
6
ByLayer
62
256
370
-1
100
AcDbLine
10
12.6344152792
20
5.72035474776
11
12.839680321
21
5.90167426706
0
LINE
5
1ED
100
AcDbEntity
8
0
6
ByLayer
62
256
370
-1
100
AcDbLine
10
11.1732705406
20
-8.21638200879
11
11.0351612671
21
-8.05420124446
0
LINE
5
1EE
100
AcDbEntity
8
0
6
ByLayer
62
256
370
-1
100
AcDbLine
10
12.839680321
20
5.90167426706
11
13.0751130408
21
6.13963247153
0
LINE
5
1EF
100
AcDbEntity
8
0
6
ByLayer
62
256
370
-1
100
AcDbLine
10
11.3364660541
20
-8.43633138894
11
11.1732705406
21
-8.21638200879
0
LINE
5
1F0
100
AcDbEntity
8
0
6
ByLayer
62
256
370
-1
100
AcDbLine
10
13.0751130408
20
6.13963247153
11
13.3338196632
21
6.43892189118
0
LINE
5
1F1
100
AcDbEntity
8
0
6
ByLayer
62
256
370
-1
100
AcDbLine
10
11.5174262484
20
-8.71794474213
11
11.3364660541
21
-8.43633138894
0
LINE
5
1F2
100
AcDbEntity
8
0
6
ByLayer
62
256
370
-1
100
AcDbLine
10
13.3338196632
20
6.43892189118
11
13.608424879
21
6.80355085693
0
LINE
5
1F3
100
AcDbEntity
8
0
6
ByLayer
62
256
370
-1
100
AcDbLine
10
11.7084340052
20
-9.06438277416
11
11.5174262484
21
-8.71794474213
0
LINE
5
1F4
100
AcDbEntity
8
0
6
ByLayer
62
256
370
-1
100
AcDbLine
10
13.608424879
20
6.80355085693
11
13.8911335337
21
7.23680089016
0
LINE
5
1F5
100
AcDbEntity
8
0
6
ByLayer
62
256
370
-1
100
AcDbLine
10
11.9014430478
20
-9.47803699778
11
11.7084340052
21
-9.06438277416
0
LINE
5
1F6
100
AcDbEntity
8
0
6
ByLayer
62
256
370
-1
100
AcDbLine
10
13.8911335337
20
7.23680089016
11
14.1737958031
21
7.7411893486
0
LINE
5
1F7
100
AcDbEntity
8
0
6
ByLayer
62
256
370
-1
100
AcDbLine
10
12.0881471255
20
-9.96050084312
11
11.9014430478
21
-9.47803699778
0
ARC
5
1F8
100
AcDbEntity
8
0
6
ByLayer
62
256
370
-1
100
AcDbCircle
10
-1.73683289972e-11
20
-9.96891458271e-12
40
16.15
100
AcDbArc
50
28.6416922109
51
31.3881165568
0
LINE
5
1F9
100
AcDbEntity
8
0
6
ByLayer
62
256
370
-1
100
AcDbLine
10
12.2600515202
20
-10.5125466335
11
12.0881471255
21
-9.96050084312
0
LINE
5
1FA
100
AcDbEntity
8
0
6
ByLayer
62
256
370
-1
100
AcDbLine
10
13.7865902503
20
8.41144632452
11
13.2084421247
21
8.41854706067
0
ARC
5
1FB
100
AcDbEntity
8
0
6
ByLayer
62
256
370
-1
100
AcDbCircle
10
-1.42366118894e-11
20
1.2885692513e-11
40
16.15
100
AcDbArc
50
316.641692211
51
319.388116557
0
LINE
5
1FC
100
AcDbEntity
8
0
6
ByLayer
62
256
370
-1
100
AcDbLine
10
13.2084421247
20
8.41854706067
11
12.6918970078
21
8.3900704583
0
LINE
5
1FD
100
AcDbEntity
8
0
6
ByLayer
62
256
370
-1
100
AcDbLine
10
11.1752029768
20
-10.974958606
11
11.7422523518
21
-11.0879217938
0
LINE
5
1FE
100
AcDbEntity
8
0
6
ByLayer
62
256
370
-1
100
AcDbLine
10
12.6918970078
20
8.3900704583
11
12.2388453887
21
8.33433413555
0
LINE
5
1FF
100
AcDbEntity
8
0
6
ByLayer
62
256
370
-1
100
AcDbLine
10
10.6757959307
20
-10.8399683208
11
11.1752029768
21
-10.974958606
0
LINE
5
200
100
AcDbEntity
8
0
6
ByLayer
62
256
370
-1
100
AcDbLine
10
12.2388453887
20
8.33433413555
11
11.8503385979
21
8.25973020314
0
LINE
5
201
100
AcDbEntity
8
0
6
ByLayer
62
256
370
-1
100
AcDbLine
10
10.2441554984
20
-10.691479788
11
10.6757959307
21
-10.8399683208
0
LINE
5
202
100
AcDbEntity
8
0
6
ByLayer
62
256
370
-1
100
AcDbLine
10
11.8503385979
20
8.25973020314
11
11.5265886079
21
8.17465014311
0
LINE
5
203
100
AcDbEntity
8
0
6
ByLayer
62
256
370
-1
100
AcDbLine
10
9.87956960267
20
-10.5379206858
11
10.2441554984
21
-10.691479788
0
LINE
5
204
100
AcDbEntity
8
0
6
ByLayer
62
256
370
-1
100
AcDbLine
10
11.5265886079
20
8.17465014311
11
11.2669741296
21
8.08741008294
0
LINE
5
205
100
AcDbEntity
8
0
6
ByLayer
62
256
370
-1
100
AcDbLine
10
9.58050519026
20
-10.3875439926
11
9.87956960267
21
-10.5379206858
0
LINE
5
206
100
AcDbEntity
8
0
6
ByLayer
62
256
370
-1
100
AcDbLine
10
11.2669741296
20
8.08741008294
11
11.0700529443
21
8.00617697081
0
LINE
5
207
100
AcDbEntity
8
0
6
ByLayer
62
256
370
-1
100
AcDbLine
10
9.34462969363
20
-10.2483561499
11
9.58050519026
21
-10.3875439926
0
LINE
5
208
100
AcDbEntity
8
0
6
ByLayer
62
256
370
-1
100
AcDbLine
10
11.0700529443
20
8.00617697081
11
10.9335803728
21
7.93889615134
0
LINE
5
209
100
AcDbEntity
8
0
6
ByLayer
62
256
370
-1
100
AcDbLine
10
9.16883840663
20
-10.1280474007
11
9.34462969363
21
-10.2483561499
0
LINE
5
20A
100
AcDbEntity
8
0
6
ByLayer
62
256
370
-1
100
AcDbLine
10
10.9335803728
20
7.93889615134
11
10.8545337428
21
7.89322083134
0
LINE
5
20B
100
AcDbEntity
8
0
6
ByLayer
62
256
370
-1
100
AcDbLine
10
9.04928757268
20
-10.0339247704
11
9.16883840663
21
-10.1280474007
0
LINE
5
20C
100
AcDbEntity
8
0
6
ByLayer
62
256
370
-1
100
AcDbLine
10
10.8545337428
20
7.89322083134
11
10.8291426788
21
7.87644391251
0
LINE
5
20D
100
AcDbEntity
8
0
6
ByLayer
62
256
370
-1
100
AcDbLine
10
8.98143294925
20
-9.97284814107
11
9.04928757268
21
-10.0339247704
0
LINE
5
20E
100
AcDbEntity
8
0
6
ByLayer
62
256
370
-1
100
AcDbLine
10
10.8291426788
20
7.87644391251
11
8.8958219138
21
6.47026680114
0
LINE
5
20F
100
AcDbEntity
8
0
6
ByLayer
62
256
370
-1
100
AcDbLine
10
8.96007357721
20
-9.95116984864
11
8.98143294925
21
-9.97284814107
0
ARC
5
210
100
AcDbEntity
8
0
6
ByLayer
62
256
370
-1
100
AcDbCircle
10
-7.59392548844e-13
20
-6.91002810527e-13
40
11
100
AcDbArc
50
36.0298087677
51
48
0
LINE
5
211
100
AcDbEntity
8
0
6
ByLayer
62
256
370
-1
100
AcDbLine
10
7.36043666995
20
-8.17459308025
11
8.96007357721
21
-9.95116984864
0
LINE
5
212
100
AcDbEntity
8
0
6
ByLayer
62
256
370
-1
100
AcDbLine
10
7.36043666995
20
8.17459308025
11
8.96007357721
21
9.95116984864
0
ARC
5
213
100
AcDbEntity
8
0
6
ByLayer
62
256
370
-1
100
AcDbCircle
10
-1.52322598979e-13
20
1.97175609173e-13
40
11
100
AcDbArc
50
300.029808768
51
312
0
LINE
5
214
100
AcDbEntity
8
0
6
ByLayer
62
256
370
-1
100
AcDbLine
10
8.96007357721
20
9.95116984864
11
8.97940045135
21
9.9746782104
0
LINE
5
215
100
AcDbEntity
8
0
6
ByLayer
62
256
370
-1
100
AcDbLine
10
6.70134228591
20
-11.5931320804
11
5.50495540846
21
-9.52341671622
0
LINE
5
216
100
AcDbEntity
8
0
6
ByLayer
62
256
370
-1
100
AcDbLine
10
8.97940045135
20
9.9746782104
11
9.03304975698
21
10.0485453653
0
LINE
5
217
100
AcDbEntity
8
0
6
ByLayer
62
256
370
-1
100
AcDbLine
10
6.71537321012
20
-11.620137715
11
6.70134228591
21
-11.5931320804
0
LINE
5
218
100
AcDbEntity
8
0
6
ByLayer
62
256
370
-1
100
AcDbLine
10
9.03304975698
20
10.0485453653
11
9.11416030872
21
10.1772797812
0
LINE
5
219
100
AcDbEntity
8
0
6
ByLayer
62
256
370
-1
100
AcDbLine
10
6.75253569318
20
-11.7035256903
11
6.71537321012
21
-11.620137715
0
LINE
5
21A
100
AcDbEntity
8
0
6
ByLayer
62
256
370
-1
100
AcDbLine
10
9.11416030872
20
10.1772797812
11
9.21543480096
21
10.3646837538
0
LINE
5
21B
100
AcDbEntity
8
0
6
ByLayer
62
256
370
-1
100
AcDbLine
10
6.8051826731
20
-11.8462834114
11
6.75253569318
21
-11.7035256903
0
LINE
5
21C
100
AcDbEntity
8
0
6
ByLayer
62
256
370
-1
100
AcDbLine
10
9.21543480096
20
10.3646837538
11
9.32920445489
21
10.6138161911
0
LINE
5
21D
100
AcDbEntity
8
0
6
ByLayer
62
256
370
-1
100
AcDbLine
10
6.86538691286
20
-12.0506170142
11
6.8051826731
21
-11.8462834114
0
LINE
5
21E
100
AcDbEntity
8
0
6
ByLayer
62
256
370
-1
100
AcDbLine
10
9.32920445489
20
10.6138161911
11
9.44749662535
21
10.926960942
0
LINE
5
21F
100
AcDbEntity
8
0
6
ByLayer
62
256
370
-1
100
AcDbLine
10
6.9250119604
20
-12.3179283667
11
6.86538691286
21
-12.0506170142
0
LINE
5
220
100
AcDbEntity
8
0
6
ByLayer
62
256
370
-1
100
AcDbLine
10
9.44749662535
20
10.926960942
11
9.56210491129
21
11.305600895
0
LINE
5
221
100
AcDbEntity
8
0
6
ByLayer
62
256
370
-1
100
AcDbLine
10
6.97578485402
20
-12.6487981083
11
6.9250119604
21
-12.3179283667
0
LINE
5
222
100
AcDbEntity
8
0
6
ByLayer
62
256
370
-1
100
AcDbLine
10
9.56210491129
20
11.305600895
11
9.66466129738
21
11.750398034
0
LINE
5
223
100
AcDbEntity
8
0
6
ByLayer
62
256
370
-1
100
AcDbLine
10
7.00937008047
20
-13.0429748526
11
6.97578485402
21
-12.6487981083
0
LINE
5
224
100
AcDbEntity
8
0
6
ByLayer
62
256
370
-1
100
AcDbLine
10
9.66466129738
20
11.750398034
11
9.74670984053
21
12.2611796031
0
LINE
5
225
100
AcDbEntity
8
0
6
ByLayer
62
256
370
-1
100
AcDbLine
10
7.01744428429
20
-13.4993706397
11
7.00937008047
21
-13.0429748526
0
LINE
5
226
100
AcDbEntity
8
0
6
ByLayer
62
256
370
-1
100
AcDbLine
10
9.74670984053
20
12.2611796031
11
9.79978140445
21
12.8369304908
0
LINE
5
227
100
AcDbEntity
8
0
6
ByLayer
62
256
370
-1
100
AcDbLine
10
6.99177122157
20
-14.0160626839
11
7.01744428429
21
-13.4993706397
0
ARC
5
228
100
AcDbEntity
8
0
6
ByLayer
62
256
370
-1
100
AcDbCircle
10
-6.60982379941e-12
20
-9.05231445358e-12
40
16.15
100
AcDbArc
50
52.6416922109
51
55.3881165568
0
LINE
5
229
100
AcDbEntity
8
0
6
ByLayer
62
256
370
-1
100
AcDbLine
10
6.92427644888
20
-14.5903014246
11
6.99177122157
21
-14.0160626839
0
LINE
5
22A
100
AcDbEntity
8
0
6
ByLayer
62
256
370
-1
100
AcDbLine
10
9.1734334581
20
13.2917500198
11
8.64238073453
21
13.0630828373
0
ARC
5
22B
100
AcDbEntity
8
0
6
ByLayer
62
256
370
-1
100
AcDbCircle
10
-5.60884672041e-12
20
1.26414434476e-11
40
16.15
100
AcDbArc
50
292.641692211
51
295.388116557
0
LINE
5
22C
100
AcDbEntity
8
0
6
ByLayer
62
256
370
-1
100
AcDbLine
10
8.64238073453
20
13.0630828373
11
8.18207576695
21
12.8269703397
0
LINE
5
22D
100
AcDbEntity
8
0
6
ByLayer
62
256
370
-1
100
AcDbLine
10
5.74513809636
20
-14.5714881268
11
6.21721720941
21
-14.9053248932
0
LINE
5
22E
100
AcDbEntity
8
0
6
ByLayer
62
256
370
-1
100
AcDbLine
10
8.18207576695
20
12.8269703397
11
7.79086252306
21
12.5917799805
0
LINE
5
22F
100
AcDbEntity
8
0
6
ByLayer
62
256
370
-1
100
AcDbLine
10
5.34381255337
20
-14.2450412195
11
5.74513809636
21
-14.5714881268
0
LINE
5
230
100
AcDbEntity
8
0
6
ByLayer
62
256
370
-1
100
AcDbLine
10
7.79086252306
20
12.5917799805
11
7.46628806211
21
12.3656059491
0
LINE
5
231
100
AcDbEntity
8
0
6
ByLayer
62
256
370
-1
100
AcDbLine
10
5.00988512446
20
-13.9338262143
11
5.34381255337
21
-14.2450412195
0
LINE
5
232
100
AcDbEntity
8
0
6
ByLayer
62
256
370
-1
100
AcDbLine
10
7.46628806211
20
12.3656059491
11
7.20513290737
21
12.1562004626
0
LINE
5
233
100
AcDbEntity
8
0
6
ByLayer
62
256
370
-1
100
AcDbLine
10
4.73927744925
20
-13.6452525507
11
5.00988512446
21
-13.9338262143
0
LINE
5
234
100
AcDbEntity
8
0
6
ByLayer
62
256
370
-1
100
AcDbLine
10
7.20513290737
20
12.1562004626
11
7.00344700917
21
11.9709079805
0
LINE
5
235
100
AcDbEntity
8
0
6
ByLayer
62
256
370
-1
100
AcDbLine
10
4.52723222512
20
-13.3862361506
11
4.73927744925
21
-13.6452525507
0
LINE
5
236
100
AcDbEntity
8
0
6
ByLayer
62
256
370
-1
100
AcDbLine
10
7.00344700917
20
11.9709079805
11
6.85659103815
21
11.816602778
0
LINE
5
237
100
AcDbEntity
8
0
6
ByLayer
62
256
370
-1
100
AcDbLine
10
4.3683620325
20
-13.1631425214
11
4.52723222512
21
-13.3862361506
0
LINE
5
238
100
AcDbEntity
8
0
6
ByLayer
62
256
370
-1
100
AcDbLine
10
6.85659103815
20
11.816602778
11
6.75928271504
21
11.6996302954
0
LINE
5
239
100
AcDbEntity
8
0
6
ByLayer
62
256
370
-1
100
AcDbLine
10
4.25670267756
20
-12.9817342521
11
4.3683620325
21
-13.1631425214
0
LINE
5
23A
100
AcDbEntity
8
0
6
ByLayer
62
256
370
-1
100
AcDbLine
10
6.75928271504
20
11.6996302954
11
6.7056478516
21
11.6257526534
0
LINE
5
23B
100
AcDbEntity
8
0
6
ByLayer
62
256
370
-1
100
AcDbLine
10
4.18577067895
20
-12.8471232459
11
4.25670267756
21
-12.9817342521
0
LINE
5
23C
100
AcDbEntity
8
0
6
ByLayer
62
256
370
-1
100
AcDbLine
10
6.7056478516
20
11.6257526534
11
6.68927574806
21
11.6000986992
0
LINE
5
23D
100
AcDbEntity
8
0
6
ByLayer
62
256
370
-1
100
AcDbLine
10
4.1486244991
20
-12.7637280068
11
4.18577067895
21
-12.8471232459
0
LINE
5
23E
100
AcDbEntity
8
0
6
ByLayer
62
256
370
-1
100
AcDbLine
10
6.68927574806
20
11.6000986992
11
5.49504310285
21
9.52913958854
0
LINE
5
23F
100
AcDbEntity
8
0
6
ByLayer
62
256
370
-1
100
AcDbLine
10
4.13792909769
20
-12.735236262
11
4.1486244991
21
-12.7637280068
0
ARC
5
240
100
AcDbEntity
8
0
6
ByLayer
62
256
370
-1
100
AcDbCircle
10
-3.71924713249e-13
20
-8.47322212394e-13
40
11
100
AcDbArc
50
60.0298087677
51
72
0
LINE
5
241
100
AcDbEntity
8
0
6
ByLayer
62
256
370
-1
100
AcDbLine
10
3.39918693812
20
-10.4616216792
11
4.13792909769
21
-12.735236262
0
LINE
5
242
100
AcDbEntity
8
0
6
ByLayer
62
256
370
-1
100
AcDbLine
10
3.39918693812
20
10.4616216792
11
4.13792909769
21
12.735236262
0
ARC
5
243
100
AcDbEntity
8
0
6
ByLayer
62
256
370
-1
100
AcDbCircle
10
-1.50546242139e-13
20
6.53699316899e-13
40
11
100
AcDbArc
50
276.029808768
51
288
0
LINE
5
244
100
AcDbEntity
8
0
6
ByLayer
62
256
370
-1
100
AcDbLine
10
4.13792909769
20
12.735236262
11
4.14602336363
21
12.764573167
0
LINE
5
245
100
AcDbEntity
8
0
6
ByLayer
62
256
370
-1
100
AcDbLine
10
1.4066291803
20
-13.3165346173
11
1.15550446215
21
-10.9391411655
0
LINE
5
246
100
AcDbEntity
8
0
6
ByLayer
62
256
370
-1
100
AcDbLine
10
4.14602336363
20
12.764573167
11
4.16498996447
21
12.8538753093
0
LINE
5
247
100
AcDbEntity
8
0
6
ByLayer
62
256
370
-1
100
AcDbLine
10
1.4084628862
20
-13.3469123832
11
1.4066291803
21
-13.3165346173
0
LINE
5
248
100
AcDbEntity
8
0
6
ByLayer
62
256
370
-1
100
AcDbLine
10
4.16498996447
20
12.8538753093
11
4.18672713642
21
13.0044706837
0
LINE
5
249
100
AcDbEntity
8
0
6
ByLayer
62
256
370
-1
100
AcDbLine
10
1.40849555866
20
-13.4382064329
11
1.4084628862
21
-13.3469123832
0
LINE
5
24A
100
AcDbEntity
8
0
6
ByLayer
62
256
370
-1
100
AcDbLine
10
4.18672713642
20
13.0044706837
11
4.20302192605
21
13.2168647786
0
LINE
5
24B
100
AcDbEntity
8
0
6
ByLayer
62
256
370
-1
100
AcDbLine
10
1.39852617176
20
-13.5900355564
11
1.40849555866
21
-13.4382064329
0
LINE
5
24C
100
AcDbEntity
8
0
6
ByLayer
62
256
370
-1
100
AcDbLine
10
4.20302192605
20
13.2168647786
11
4.2056243854
21
13.4907328722
0
LINE
5
24D
100
AcDbEntity
8
0
6
ByLayer
62
256
370
-1
100
AcDbLine
10
1.37041551784
20
-13.8011908615
11
1.39852617176
21
-13.5900355564
0
LINE
5
24E
100
AcDbEntity
8
0
6
ByLayer
62
256
370
-1
100
AcDbLine
10
4.2056243854
20
13.4907328722
11
4.18632221562
21
13.8249185973
0
LINE
5
24F
100
AcDbEntity
8
0
6
ByLayer
62
256
370
-1
100
AcDbLine
10
1.31616038702
20
-14.069643625
11
1.37041551784
21
-13.8011908615
0
LINE
5
250
100
AcDbEntity
8
0
6
ByLayer
62
256
370
-1
100
AcDbLine
10
4.18632221562
20
13.8249185973
11
4.13701535123
21
14.2174387959
0
LINE
5
251
100
AcDbEntity
8
0
6
ByLayer
62
256
370
-1
100
AcDbLine
10
1.22796688537
20
-14.3925593708
11
1.31616038702
21
-14.069643625
0
LINE
5
252
100
AcDbEntity
8
0
6
ByLayer
62
256
370
-1
100
AcDbLine
10
4.13701535123
20
14.2174387959
11
4.0497899767
21
14.6654946421
0
LINE
5
253
100
AcDbEntity
8
0
6
ByLayer
62
256
370
-1
100
AcDbLine
10
1.09832239067
20
-14.7663180874
11
1.22796688537
21
-14.3925593708
0
LINE
5
254
100
AcDbEntity
8
0
6
ByLayer
62
256
370
-1
100
AcDbLine
10
4.0497899767
20
14.6654946421
11
3.91699146987
21
15.1654889733
0
LINE
5
255
100
AcDbEntity
8
0
6
ByLayer
62
256
370
-1
100
AcDbLine
10
0.920065652538
20
-15.1865404601
11
1.09832239067
21
-14.7663180874
0
LINE
5
256
100
AcDbEntity
8
0
6
ByLayer
62
256
370
-1
100
AcDbLine
10
3.91699146987
20
15.1654889733
11
3.73129577271
21
15.7130497312
0
LINE
5
257
100
AcDbEntity
8
0
6
ByLayer
62
256
370
-1
100
AcDbLine
10
0.686454555142
20
-15.6481199547
11
0.920065652538
21
-15.1865404601
0
ARC
5
258
100
AcDbEntity
8
0
6
ByLayer
62
256
370
-1
100
AcDbCircle
10
-3.51496609596e-12
20
-1.6392220914e-11
40
16.15
100
AcDbArc
50
76.6416922109
51
79.3881165568
0
LINE
5
259
100
AcDbEntity
8
0
6
ByLayer
62
256
370
-1
100
AcDbLine
10
0.391231074449
20
-16.1452605506
11
0.686454555142
21
-15.6481199547
0
LINE
5
25A
100
AcDbEntity
8
0
6
ByLayer
62
256
370
-1
100
AcDbLine
10
2.97410668296
20
15.873789385
11
2.58197320179
21
15.448892917
0
ARC
5
25B
100
AcDbEntity
8
0
6
ByLayer
62
256
370
-1
100
AcDbCircle
10
7.05824287905e-14
20
8.87645512648e-12
40
16.15
100
AcDbArc
50
268.641692211
51
271.388116557
0
LINE
5
25C
100
AcDbEntity
8
0
6
ByLayer
62
256
370
-1
100
AcDbLine
10
2.58197320179
20
15.448892917
11
2.25749929419
21
15.04597052
0
LINE
5
25D
100
AcDbEntity
8
0
6
ByLayer
62
256
370
-1
100
AcDbLine
10
-0.678313353835
20
-15.6484749726
11
-0.382831270173
21
-16.1454619079
0
LINE
5
25E
100
AcDbEntity
8
0
6
ByLayer
62
256
370
-1
100
AcDbLine
10
2.25749929419
20
15.04597052
11
1.99576874943
21
14.6719926741
0
LINE
5
25F
100
AcDbEntity
8
0
6
ByLayer
62
256
370
-1
100
AcDbLine
10
-0.91216456148
20
-15.1870170792
11
-0.678313353835
21
-15.6484749726
0
LINE
5
260
100
AcDbEntity
8
0
6
ByLayer
62
256
370
-1
100
AcDbLine
10
1.99576874943
20
14.6719926741
11
1.79124849127
21
14.3333560884
0
LINE
5
261
100
AcDbEntity
8
0
6
ByLayer
62
256
370
-1
100
AcDbLine
10
-1.09063990085
20
-14.7668875034
11
-0.91216456148
21
-15.1870170792
0
LINE
5
262
100
AcDbEntity
8
0
6
ByLayer
62
256
370
-1
100
AcDbLine
10
1.79124849127
20
14.3333560884
11
1.63784427054
21
14.0358332864
0
LINE
5
263
100
AcDbEntity
8
0
6
ByLayer
62
256
370
-1
100
AcDbLine
10
-1.22047883013
20
-14.3931962864
11
-1.09063990085
21
-14.7668875034
0
LINE
5
264
100
AcDbEntity
8
0
6
ByLayer
62
256
370
-1
100
AcDbLine
10
1.63784427054
20
14.0358332864
11
1.52896027652
21
13.7845271359
0
LINE
5
265
100
AcDbEntity
8
0
6
ByLayer
62
256
370
-1
100
AcDbLine
10
-1.30884032035
20
-14.070326468
11
-1.22047883013
21
-14.3931962864
0
LINE
5
266
100
AcDbEntity
8
0
6
ByLayer
62
256
370
-1
100
AcDbLine
10
1.52896027652
20
13.7845271359
11
1.45756225133
21
13.5838306144
0
LINE
5
267
100
AcDbEntity
8
0
6
ByLayer
62
256
370
-1
100
AcDbLine
10
-1.36323510937
20
-13.8019019676
11
-1.30884032035
21
-14.070326468
0
LINE
5
268
100
AcDbEntity
8
0
6
ByLayer
62
256
370
-1
100
AcDbLine
10
1.45756225133
20
13.5838306144
11
1.41624366967
21
13.4373920736
0
LINE
5
269
100
AcDbEntity
8
0
6
ByLayer
62
256
370
-1
100
AcDbLine
10
-1.39145561538
20
-13.590761316
11
-1.36323510937
21
-13.8019019676
0
LINE
5
26A
100
AcDbEntity
8
0
6
ByLayer
62
256
370
-1
100
AcDbLine
10
1.41624366967
20
13.4373920736
11
1.39729452793
21
13.348086225
0
LINE
5
26B
100
AcDbEntity
8
0
6
ByLayer
62
256
370
-1
100
AcDbLine
10
-1.40150399171
20
-13.4389373997
11
-1.39145561538
21
-13.590761316
0
LINE
5
26C
100
AcDbEntity
8
0
6
ByLayer
62
256
370
-1
100
AcDbLine
10
1.39729452793
20
13.348086225
11
1.39277227029
21
13.3179910373
0
LINE
5
26D
100
AcDbEntity
8
0
6
ByLayer
62
256
370
-1
100
AcDbLine
10
-1.40151881601
20
-13.3476433454
11
-1.40150399171
21
-13.4389373997
0
LINE
5
26E
100
AcDbEntity
8
0
6
ByLayer
62
256
370
-1
100
AcDbLine
10
1.39277227029
20
13.3179910373
11
1.14412141851
21
10.9403375716
0
LINE
5
26F
100
AcDbEntity
8
0
6
ByLayer
62
256
370
-1
100
AcDbLine
10
-1.39970091472
20
-13.3172646296
11
-1.40151881601
21
-13.3476433454
0
ARC
5
270
100
AcDbEntity
8
0
6
ByLayer
62
256
370
-1
100
AcDbCircle
10
-2.22044604925e-16
20
-1.000977079e-12
40
11
100
AcDbArc
50
84.0298087677
51
96
0
LINE
5
271
100
AcDbEntity
8
0
6
ByLayer
62
256
370
-1
100
AcDbLine
10
-1.14981309594
20
-10.9397408491
11
-1.39970091472
21
-13.3172646296
0
LINE
5
272
100
AcDbEntity
8
0
6
ByLayer
62
256
370
-1
100
AcDbLine
10
-1.14981309594
20
10.9397408491
11
-1.39970091472
21
13.3172646296
0
ARC
5
273
100
AcDbEntity
8
0
6
ByLayer
62
256
370
-1
100
AcDbCircle
10
6.43929354283e-14
20
3.65929508916e-13
40
11
100
AcDbArc
50
252.029808768
51
264
0
LINE
5
274
100
AcDbEntity
8
0
6
ByLayer
62
256
370
-1
100
AcDbLine
10
-1.39970091472
20
13.3172646296
11
-1.40423882911
21
13.3473574605
0
LINE
5
275
100
AcDbEntity
8
0
6
ByLayer
62
256
370
-1
100
AcDbLine
10
-4.13130288941
20
-12.737387342
11
-3.39374370309
21
-10.4633887282
0
LINE
5
276
100
AcDbEntity
8
0
6
ByLayer
62
256
370
-1
100
AcDbLine
10
-1.40423882911
20
13.3473574605
11
-1.42323443064
21
13.4366534385
0
LINE
5
277
100
AcDbEntity
8
0
6
ByLayer
62
256
370
-1
100
AcDbLine
10
-4.14198346622
20
-12.7658846475
11
-4.13130288941
21
-12.737387342
0
LINE
5
278
100
AcDbEntity
8
0
6
ByLayer
62
256
370
-1
100
AcDbLine
10
-1.42323443064
20
13.4366534385
11
-1.46462919299
21
13.5830704631
0
LINE
5
279
100
AcDbEntity
8
0
6
ByLayer
62
256
370
-1
100
AcDbLine
10
-4.17908625374
20
-12.8492992009
11
-4.14198346622
21
-12.7658846475
0
LINE
5
27A
100
AcDbEntity
8
0
6
ByLayer
62
256
370
-1
100
AcDbLine
10
-1.46462919299
20
13.5830704631
11
-1.53613162312
21
13.7837298118
0
LINE
5
27B
100
AcDbEntity
8
0
6
ByLayer
62
256
370
-1
100
AcDbLine
10
-4.24994820989
20
-12.9839470921
11
-4.17908625374
21
-12.8492992009
0
LINE
5
27C
100
AcDbEntity
8
0
6
ByLayer
62
256
370
-1
100
AcDbLine
10
-1.53613162312
20
13.7837298118
11
-1.64514634722
21
14.0349792802
0
LINE
5
27D
100
AcDbEntity
8
0
6
ByLayer
62
256
370
-1
100
AcDbLine
10
-4.36151317004
20
-13.1654134289
11
-4.24994820989
21
-12.9839470921
0
LINE
5
27E
100
AcDbEntity
8
0
6
ByLayer
62
256
370
-1
100
AcDbLine
10
-1.64514634722
20
14.0349792802
11
-1.79870533674
21
14.3324222316
0
LINE
5
27F
100
AcDbEntity
8
0
6
ByLayer
62
256
370
-1
100
AcDbLine
10
-4.52026727422
20
-13.3885896818
11
-4.36151317004
21
-13.1654134289
0
LINE
5
280
100
AcDbEntity
8
0
6
ByLayer
62
256
370
-1
100
AcDbLine
10
-1.79870533674
20
14.3324222316
11
-2.00340174666
21
14.6709523676
0
LINE
5
281
100
AcDbEntity
8
0
6
ByLayer
62
256
370
-1
100
AcDbLine
10
-4.73217771349
20
-13.6477163658
11
-4.52026727422
21
-13.3885896818
0
LINE
5
282
100
AcDbEntity
8
0
6
ByLayer
62
256
370
-1
100
AcDbLine
10
-2.00340174666
20
14.6709523676
11
-2.26532682213
21
15.0447939946
0
LINE
5
283
100
AcDbEntity
8
0
6
ByLayer
62
256
370
-1
100
AcDbLine
10
-5.00263521842
20
-13.936430777
11
-4.73217771349
21
-13.6477163658
0
LINE
5
284
100
AcDbEntity
8
0
6
ByLayer
62
256
370
-1
100
AcDbLine
10
-2.26532682213
20
15.0447939946
11
-2.59001031068
21
15.4475475259
0
LINE
5
285
100
AcDbEntity
8
0
6
ByLayer
62
256
370
-1
100
AcDbLine
10
-5.33640068907
20
-14.2478194696
11
-5.00263521842
21
-13.936430777
0
LINE
5
286
100
AcDbEntity
8
0
6
ByLayer
62
256
370
-1
100
AcDbLine
10
-2.59001031068
20
15.4475475259
11
-2.98236479589
21
15.8722399246
0
LINE
5
287
100
AcDbEntity
8
0
6
ByLayer
62
256
370
-1
100
AcDbLine
10
-5.73755634011
20
-14.5744751267
11
-5.33640068907
21
-14.2478194696
0
ARC
5
288
100
AcDbEntity
8
0
6
ByLayer
62
256
370
-1
100
AcDbCircle
10
5.01554353605e-12
20
-2.36637376361e-11
40
16.15
100
AcDbArc
50
100.641692211
51
103.388116557
0
LINE
5
289
100
AcDbEntity
8
0
6
ByLayer
62
256
370
-1
100
AcDbLine
10
-6.20946170698
20
-14.9085574523
11
-5.73755634011
21
-14.5744751267
0
LINE
5
28A
100
AcDbEntity
8
0
6
ByLayer
62
256
370
-1
100
AcDbLine
10
-3.73947015657
20
15.7111063566
11
-3.92488095404
21
15.1634490625
0
ARC
5
28B
100
AcDbEntity
8
0
6
ByLayer
62
256
370
-1
100
AcDbCircle
10
1.0126122163e-11
20
2.2724044868e-11
40
16.15
100
AcDbArc
50
244.641692211
51
247.388116557
0
LINE
5
28C
100
AcDbEntity
8
0
6
ByLayer
62
256
370
-1
100
AcDbLine
10
-3.92488095404
20
15.1634490625
11
-4.05741931528
21
14.663385709
0
LINE
5
28D
100
AcDbEntity
8
0
6
ByLayer
62
256
370
-1
100
AcDbLine
10
-6.98447826287
20
-14.0196983338
11
-6.91668474523
21
-14.5939018818
0
LINE
5
28E
100
AcDbEntity
8
0
6
ByLayer
62
256
370
-1
100
AcDbLine
10
-4.05741931528
20
14.663385709
11
-4.14441157197
21
14.2152845435
0
LINE
5
28F
100
AcDbEntity
8
0
6
ByLayer
62
256
370
-1
100
AcDbLine
10
-7.0104201369
20
-13.5030197162
11
-6.98447826287
21
-14.0196983338
0
LINE
5
290
100
AcDbEntity
8
0
6
ByLayer
62
256
370
-1
100
AcDbLine
10
-4.14441157197
20
14.2152845435
11
-4.19351421669
21
13.8227387456
0
LINE
5
291
100
AcDbEntity
8
0
6
ByLayer
62
256
370
-1
100
AcDbLine
10
-7.00258337916
20
-13.0466197902
11
-7.0104201369
21
-13.5030197162
0
LINE
5
292
100
AcDbEntity
8
0
6
ByLayer
62
256
370
-1
100
AcDbLine
10
-4.19351421669
20
13.8227387456
11
-4.21264252002
21
13.4885430235
0
LINE
5
293
100
AcDbEntity
8
0
6
ByLayer
62
256
370
-1
100
AcDbLine
10
-6.96920323208
20
-12.6524256261
11
-7.00258337916
21
-13.0466197902
0
LINE
5
294
100
AcDbEntity
8
0
6
ByLayer
62
256
370
-1
100
AcDbLine
10
-4.21264252002
20
13.4885430235
11
-4.2098975781
21
13.214676321
0
LINE
5
295
100
AcDbEntity
8
0
6
ByLayer
62
256
370
-1
100
AcDbLine
10
-6.91860248399
20
-12.3215295141
11
-6.96920323208
21
-12.6524256261
0
LINE
5
296
100
AcDbEntity
8
0
6
ByLayer
62
256
370
-1
100
AcDbLine
10
-4.2098975781
20
13.214676321
11
-4.19349229028
21
13.0022907324
0
LINE
5
297
100
AcDbEntity
8
0
6
ByLayer
62
256
370
-1
100
AcDbLine
10
-6.85911651623
20
-12.0541871772
11
-6.91860248399
21
-12.3215295141
0
LINE
5
298
100
AcDbEntity
8
0
6
ByLayer
62
256
370
-1
100
AcDbLine
10
-4.19349229028
20
13.0022907324
11
-4.17167677236
21
12.8517066874
0
LINE
5
299
100
AcDbEntity
8
0
6
ByLayer
62
256
370
-1
100
AcDbLine
10
-6.79901859145
20
-11.8498222801
11
-6.85911651623
21
-12.0541871772
0
LINE
5
29A
100
AcDbEntity
8
0
6
ByLayer
62
256
370
-1
100
AcDbLine
10
-4.17167677236
20
12.8517066874
11
-4.15266371365
21
12.7624144247
0
LINE
5
29B
100
AcDbEntity
8
0
6
ByLayer
62
256
370
-1
100
AcDbLine
10
-6.74644588994
20
-11.7070371882
11
-6.79901859145
21
-11.8498222801
0
LINE
5
29C
100
AcDbEntity
8
0
6
ByLayer
62
256
370
-1
100
AcDbLine
10
-4.15266371365
20
12.7624144247
11
-4.14455418595
21
12.7330817348
0
LINE
5
29D
100
AcDbEntity
8
0
6
ByLayer
62
256
370
-1
100
AcDbLine
10
-6.70932679543
20
-11.62362989
11
-6.74644588994
21
-11.7070371882
0
LINE
5
29E
100
AcDbEntity
8
0
6
ByLayer
62
256
370
-1
100
AcDbLine
10
-4.14455418595
20
12.7330817348
11
-3.4046292531
21
10.4598517986
0
LINE
5
29F
100
AcDbEntity
8
0
6
ByLayer
62
256
370
-1
100
AcDbLine
10
-6.6953099231
20
-11.5966169592
11
-6.70932679543
21
-11.62362989
0
ARC
5
2A0
100
AcDbEntity
8
0
6
ByLayer
62
256
370
-1
100
AcDbCircle
10
2.9620750297e-13
20
-6.48370246381e-13
40
11
100
AcDbArc
50
108.029808768
51
120
0
LINE
5
2A1
100
AcDbEntity
8
0
6
ByLayer
62
256
370
-1
100
AcDbLine
10
-5.5
20
-9.52627944163
11
-6.6953099231
21
-11.5966169592
0
LINE
5
2A2
100
AcDbEntity
8
0
6
ByLayer
62
256
370
-1
100
AcDbLine
10
-5.5
20
9.52627944163
11
-6.6953099231
21
11.5966169592
0
ARC
5
2A3
100
AcDbEntity
8
0
6
ByLayer
62
256
370
-1
100
AcDbCircle
10
5.28466159722e-13
20
7.28306304154e-13
40
11
100
AcDbArc
50
228.029808768
51
240
0
LINE
5
2A4
100
AcDbEntity
8
0
6
ByLayer
62
256
370
-1
100
AcDbLine
10
-6.6953099231
20
11.5966169592
11
-6.71169537118
21
11.6222623921
0
LINE
5
2A5
100
AcDbEntity
8
0
6
ByLayer
62
256
370
-1
100
AcDbLine
10
-8.95489515782
20
-9.9558300798
11
-7.35618275087
21
-8.17842132296
0
LINE
5
2A6
100
AcDbEntity
8
0
6
ByLayer
62
256
370
-1
100
AcDbLine
10
-6.71169537118
20
11.6222623921
11
-6.76536866302
21
11.69611212
0
LINE
5
2A7
100
AcDbEntity
8
0
6
ByLayer
62
256
370
-1
100
AcDbLine
10
-8.9762432486
20
-9.97751948175
11
-8.95489515782
21
-9.9558300798
0
LINE
5
2A8
100
AcDbEntity
8
0
6
ByLayer
62
256
370
-1
100
AcDbLine
10
-6.76536866302
20
11.69611212
11
-6.8627378292
21
11.8130339611
0
LINE
5
2A9
100
AcDbEntity
8
0
6
ByLayer
62
256
370
-1
100
AcDbLine
10
-9.04406608706
20
-10.0386314049
11
-8.9762432486
21
-9.97751948175
0
LINE
5
2AA
100
AcDbEntity
8
0
6
ByLayer
62
256
370
-1
100
AcDbLine
10
-6.8627378292
20
11.8130339611
11
-7.00967405934
21
11.9672627392
0
LINE
5
2AB
100
AcDbEntity
8
0
6
ByLayer
62
256
370
-1
100
AcDbLine
10
-9.16356793648
20
-10.1328162201
11
-9.04406608706
21
-10.0386314049
0
LINE
5
2AC
100
AcDbEntity
8
0
6
ByLayer
62
256
370
-1
100
AcDbLine
10
-7.00967405934
20
11.9672627392
11
-7.21145633072
21
12.1524502669
0
LINE
5
2AD
100
AcDbEntity
8
0
6
ByLayer
62
256
370
-1
100
AcDbLine
10
-9.33929660773
20
-10.2532164105
11
-9.16356793648
21
-10.1328162201
0
LINE
5
2AE
100
AcDbEntity
8
0
6
ByLayer
62
256
370
-1
100
AcDbLine
10
-7.21145633072
20
12.1524502669
11
-7.47272039565
21
12.3617198562
0
LINE
5
2AF
100
AcDbEntity
8
0
6
ByLayer
62
256
370
-1
100
AcDbLine
10
-9.57509965841
20
-10.3925269512
11
-9.33929660773
21
-10.2532164105
0
LINE
5
2B0
100
AcDbEntity
8
0
6
ByLayer
62
256
370
-1
100
AcDbLine
10
-7.47272039565
20
12.3617198562
11
-7.79741248223
21
12.5877249936
0
LINE
5
2B1
100
AcDbEntity
8
0
6
ByLayer
62
256
370
-1
100
AcDbLine
10
-9.8740857952
20
-10.5430592156
11
-9.57509965841
21
-10.3925269512
0
LINE
5
2B2
100
AcDbEntity
8
0
6
ByLayer
62
256
370
-1
100
AcDbLine
10
-7.79741248223
20
12.5877249936
11
-8.18874803357
21
12.8227117878
0
LINE
5
2B3
100
AcDbEntity
8
0
6
ByLayer
62
256
370
-1
100
AcDbLine
10
-10.2385917507
20
-10.6968079768
11
-9.8740857952
21
-10.5430592156
0
LINE
5
2B4
100
AcDbEntity
8
0
6
ByLayer
62
256
370
-1
100
AcDbLine
10
-8.18874803357
20
12.8227117878
11
-8.64917577901
21
13.0585847747
0
LINE
5
2B5
100
AcDbEntity
8
0
6
ByLayer
62
256
370
-1
100
AcDbLine
10
-10.6701548719
20
-10.8455210554
11
-10.2385917507
21
-10.6968079768
0
LINE
5
2B6
100
AcDbEntity
8
0
6
ByLayer
62
256
370
-1
100
AcDbLine
10
-8.64917577901
20
13.0585847747
11
-9.18034739735
21
13.2869756402
0
LINE
5
2B7
100
AcDbEntity
8
0
6
ByLayer
62
256
370
-1
100
AcDbLine
10
-11.1694916201
20
-10.9807711443
11
-10.6701548719
21
-10.8455210554
0
ARC
5
2B8
100
AcDbEntity
8
0
6
ByLayer
62
256
370
-1
100
AcDbCircle
10
1.42978962003e-11
20
-1.96918037432e-11
40
16.15
100
AcDbArc
50
124.641692211
51
127.388116557
0
LINE
5
2B9
100
AcDbEntity
8
0
6
ByLayer
62
256
370
-1
100
AcDbLine
10
-11.7364821481
20
-11.0940293306
11
-11.1694916201
21
-10.9807711443
0
LINE
5
2BA
100
AcDbEntity
8
0
6
ByLayer
62
256
370
-1
100
AcDbLine
10
-9.80645863401
20
12.8318303082
11
-9.75308753648
21
12.2561071095
0
ARC
5
2BB
100
AcDbEntity
8
0
6
ByLayer
62
256
370
-1
100
AcDbCircle
10
1.68824954017e-11
20
1.50963685996e-11
40
16.15
100
AcDbArc
50
220.641692211
51
223.388116557
0
LINE
5
2BC
100
AcDbEntity
8
0
6
ByLayer
62
256
370
-1
100
AcDbLine
10
-9.75308753648
20
12.2561071095
11
-9.67077326464
21
11.7453682963
0
LINE
5
2BD
100
AcDbEntity
8
0
6
ByLayer
62
256
370
-1
100
AcDbLine
10
-12.0829634283
20
-9.96678848806
11
-12.2545805917
21
-10.5189236389
0
LINE
5
2BE
100
AcDbEntity
8
0
6
ByLayer
62
256
370
-1
100
AcDbLine
10
-9.67077326464
20
11.7453682963
11
-9.56798548177
21
11.3006245735
0
LINE
5
2BF
100
AcDbEntity
8
0
6
ByLayer
62
256
370
-1
100
AcDbLine
10
-11.896510383
20
-9.48422757315
11
-12.0829634283
21
-9.96678848806
0
LINE
5
2C0
100
AcDbEntity
8
0
6
ByLayer
62
256
370
-1
100
AcDbLine
10
-9.56798548177
20
11.3006245735
11
-9.4531802197
21
10.922044298
0
LINE
5
2C1
100
AcDbEntity
8
0
6
ByLayer
62
256
370
-1
100
AcDbLine
10
-11.7037165747
20
-9.07047299041
11
-11.896510383
21
-9.48422757315
0
LINE
5
2C2
100
AcDbEntity
8
0
6
ByLayer
62
256
370
-1
100
AcDbLine
10
-9.4531802197
20
10.922044298
11
-9.33472514821
21
10.6089611323
0
LINE
5
2C3
100
AcDbEntity
8
0
6
ByLayer
62
256
370
-1
100
AcDbLine
10
-11.512889082
20
-8.72393563135
11
-11.7037165747
21
-9.07047299041
0
LINE
5
2C4
100
AcDbEntity
8
0
6
ByLayer
62
256
370
-1
100
AcDbLine
10
-9.33472514821
20
10.6089611323
11
-9.22082589575
21
10.3598879187
0
LINE
5
2C5
100
AcDbEntity
8
0
6
ByLayer
62
256
370
-1
100
AcDbLine
10
-11.3320754246
20
-8.44222816973
11
-11.512889082
21
-8.72393563135
0
LINE
5
2C6
100
AcDbEntity
8
0
6
ByLayer
62
256
370
-1
100
AcDbLine
10
-9.22082589575
20
10.3598879187
11
-9.11945391822
21
10.1725366606
0
LINE
5
2C7
100
AcDbEntity
8
0
6
ByLayer
62
256
370
-1
100
AcDbLine
10
-11.1689943643
20
-8.22219391505
11
-11.3320754246
21
-8.44222816973
0
LINE
5
2C8
100
AcDbEntity
8
0
6
ByLayer
62
256
370
-1
100
AcDbLine
10
-9.11945391822
20
10.1725366606
11
-9.03827640195
21
10.0438444608
0
LINE
5
2C9
100
AcDbEntity
8
0
6
ByLayer
62
256
370
-1
100
AcDbLine
10
-11.0309694859
20
-8.05994131979
11
-11.1689943643
21
-8.22219391505
0
LINE
5
2CA
100
AcDbEntity
8
0
6
ByLayer
62
256
370
-1
100
AcDbLine
10
-9.03827640195
20
10.0438444608
11
-8.98458867337
21
9.97000522754
0
LINE
5
2CB
100
AcDbEntity
8
0
6
ByLayer
62
256
370
-1
100
AcDbLine
10
-10.9248660043
20
-7.95088389173
11
-11.0309694859
21
-8.05994131979
0
LINE
5
2CC
100
AcDbEntity
8
0
6
ByLayer
62
256
370
-1
100
AcDbLine
10
-8.98458867337
20
9.97000522754
11
-8.96524957135
21
9.94650692398
0
LINE
5
2CD
100
AcDbEntity
8
0
6
ByLayer
62
256
370
-1
100
AcDbLine
10
-10.8570312196
20
-7.88978522922
11
-10.9248660043
21
-7.95088389173
0
LINE
5
2CE
100
AcDbEntity
8
0
6
ByLayer
62
256
370
-1
100
AcDbLine
10
-8.96524957135
20
9.94650692398
11
-7.36468859676
21
8.17076262491
0
LINE
5
2CF
100
AcDbEntity
8
0
6
ByLayer
62
256
370
-1
100
AcDbLine
10
-10.8332390208
20
-7.87080886465
11
-10.8570312196
21
-7.88978522922
0
ARC
5
2D0
100
AcDbEntity
8
0
6
ByLayer
62
256
370
-1
100
AcDbCircle
10
5.71986902287e-13
20
-5.16919840265e-13
40
11
100
AcDbArc
50
132.029808768
51
144
0
LINE
5
2D1
100
AcDbEntity
8
0
6
ByLayer
62
256
370
-1
100
AcDbLine
10
-8.89918693812
20
-6.46563777522
11
-10.8332390208
21
-7.87080886465
0
LINE
5
2D2
100
AcDbEntity
8
0
6
ByLayer
62
256
370
-1
100
AcDbLine
10
-8.89918693812
20
6.46563777522
11
-10.8332390208
21
7.87080886465
0
ARC
5
2D3
100
AcDbEntity
8
0
6
ByLayer
62
256
370
-1
100
AcDbCircle
10
7.36299909931e-13
20
4.33875158024e-13
40
11
100
AcDbArc
50
204.029808768
51
216
0
LINE
5
2D4
100
AcDbEntity
8
0
6
ByLayer
62
256
370
-1
100
AcDbLine
10
-10.8332390208
20
7.87080886465
11
-10.8586388097
21
7.88757257123
0
LINE
5
2D5
100
AcDbEntity
8
0
6
ByLayer
62
256
370
-1
100
AcDbLine
10
-12.2301047008
20
-5.45281935087
11
-10.0466709722
21
-4.47933057233
0
LINE
5
2D6
100
AcDbEntity
8
0
6
ByLayer
62
256
370
-1
100
AcDbLine
10
-10.8586388097
20
7.88757257123
11
-10.9377091921
21
7.93320676016
0
LINE
5
2D7
100
AcDbEntity
8
0
6
ByLayer
62
256
370
-1
100
AcDbLine
10
-12.2584290267
20
-5.46395055473
11
-12.2301047008
21
-5.45281935087
0
LINE
5
2D8
100
AcDbEntity
8
0
6
ByLayer
62
256
370
-1
100
AcDbLine
10
-10.9377091921
20
7.93320676016
11
-11.0742167487
21
8.00041656915
0
LINE
5
2D9
100
AcDbEntity
8
0
6
ByLayer
62
256
370
-1
100
AcDbLine
10
-12.3452447312
20
-5.4921930409
11
-12.2584290267
21
-5.46395055473
0
LINE
5
2DA
100
AcDbEntity
8
0
6
ByLayer
62
256
370
-1
100
AcDbLine
10
-11.0742167487
20
8.00041656915
11
-11.2711801698
21
8.08154721985
0
LINE
5
2DB
100
AcDbEntity
8
0
6
ByLayer
62
256
370
-1
100
AcDbLine
10
-12.4927235185
20
-5.52962936995
11
-12.3452447312
21
-5.4921930409
0
LINE
5
2DC
100
AcDbEntity
8
0
6
ByLayer
62
256
370
-1
100
AcDbLine
10
-11.2711801698
20
8.08154721985
11
-11.5308400006
21
8.1686522009
0
LINE
5
2DD
100
AcDbEntity
8
0
6
ByLayer
62
256
370
-1
100
AcDbLine
10
-12.7022308171
20
-5.56814512709
11
-12.4927235185
21
-5.52962936995
0
LINE
5
2DE
100
AcDbEntity
8
0
6
ByLayer
62
256
370
-1
100
AcDbLine
10
-11.5308400006
20
8.1686522009
11
-11.8546342106
21
8.25356381488
0
LINE
5
2DF
100
AcDbEntity
8
0
6
ByLayer
62
256
370
-1
100
AcDbLine
10
-12.9743103246
20
-5.59950189749
11
-12.7022308171
21
-5.56814512709
0
LINE
5
2E0
100
AcDbEntity
8
0
6
ByLayer
62
256
370
-1
100
AcDbLine
10
-11.8546342106
20
8.25356381488
11
-12.2431797623
21
8.32796561222
0
LINE
5
2E1
100
AcDbEntity
8
0
6
ByLayer
62
256
370
-1
100
AcDbLine
10
-13.3086747397
20
-5.61541134626
11
-12.9743103246
21
-5.59950189749
0
LINE
5
2E2
100
AcDbEntity
8
0
6
ByLayer
62
256
370
-1
100
AcDbLine
10
-12.2431797623
20
8.32796561222
11
-12.6962603176
21
8.38346622228
0
LINE
5
2E3
100
AcDbEntity
8
0
6
ByLayer
62
256
370
-1
100
AcDbLine
10
-13.7042027547
20
-5.60760989999
11
-13.3086747397
21
-5.61541134626
0
LINE
5
2E4
100
AcDbEntity
8
0
6
ByLayer
62
256
370
-1
100
AcDbLine
10
-12.6962603176
20
8.38346622228
11
-13.2128201798
21
8.41167408245
0
LINE
5
2E5
100
AcDbEntity
8
0
6
ByLayer
62
256
370
-1
100
AcDbLine
10
-14.158942342
20
-5.5679335222
11
-13.7042027547
21
-5.60760989999
0
LINE
5
2E6
100
AcDbEntity
8
0
6
ByLayer
62
256
370
-1
100
AcDbLine
10
-13.2128201798
20
8.41167408245
11
-13.790964533
21
8.40427255927
0
LINE
5
2E7
100
AcDbEntity
8
0
6
ByLayer
62
256
370
-1
100
AcDbLine
10
-14.6701203273
20
-5.48839207384
11
-14.158942342
21
-5.5679335222
0
ARC
5
2E8
100
AcDbEntity
8
0
6
ByLayer
62
256
370
-1
100
AcDbCircle
10
2.63176147541e-11
20
-1.52193813108e-11
40
16.15
100
AcDbArc
50
148.641692211
51
151.388116557
0
LINE
5
2E9
100
AcDbEntity
8
0
6
ByLayer
62
256
370
-1
100
AcDbLine
10
-15.2341582032
20
-5.36124275147
11
-14.6701203273
21
-5.48839207384
0
LINE
5
2EA
100
AcDbEntity
8
0
6
ByLayer
62
256
370
-1
100
AcDbLine
10
-14.1778213248
20
7.73381422607
11
-13.8948966798
21
7.22957289408
0
ARC
5
2EB
100
AcDbEntity
8
0
6
ByLayer
62
256
370
-1
100
AcDbCircle
10
2.04796180014e-11
20
6.61781740519e-12
40
16.15
100
AcDbArc
50
196.641692211
51
199.388116557
0
LINE
5
2EC
100
AcDbEntity
8
0
6
ByLayer
62
256
370
-1
100
AcDbLine
10
-13.8948966798
20
7.22957289408
11
-13.6119626603
21
6.79647000181
0
LINE
5
2ED
100
AcDbEntity
8
0
6
ByLayer
62
256
370
-1
100
AcDbLine
10
-15.0921944466
20
-4.19053036733
11
-15.4735481245
21
-4.62512793743
0
LINE
5
2EE
100
AcDbEntity
8
0
6
ByLayer
62
256
370
-1
100
AcDbLine
10
-13.6119626603
20
6.79647000181
11
-13.3371677794
21
6.43198395182
0
LINE
5
2EF
100
AcDbEntity
8
0
6
ByLayer
62
256
370
-1
100
AcDbLine
10
-14.7255859074
20
-3.82552632121
11
-15.0921944466
21
-4.19053036733
0
LINE
5
2F0
100
AcDbEntity
8
0
6
ByLayer
62
256
370
-1
100
AcDbLine
10
-13.3371677794
20
6.43198395182
11
-13.0783054833
21
6.13282916767
0
LINE
5
2F1
100
AcDbEntity
8
0
6
ByLayer
62
256
370
-1
100
AcDbLine
10
-14.3811708496
20
-3.52595900794
11
-14.7255859074
21
-3.82552632121
0
LINE
5
2F2
100
AcDbEntity
8
0
6
ByLayer
62
256
370
-1
100
AcDbLine
10
-13.0783054833
20
6.13282916767
11
-12.842748995
21
5.89499348189
0
LINE
5
2F3
100
AcDbEntity
8
0
6
ByLayer
62
256
370
-1
100
AcDbLine
10
-14.0658918183
20
-3.28699791148
11
-14.3811708496
21
-3.52595900794
0
LINE
5
2F4
100
AcDbEntity
8
0
6
ByLayer
62
256
370
-1
100
AcDbLine
10
-12.842748995
20
5.89499348189
11
-12.6373896475
21
5.71378077855
0
LINE
5
2F5
100
AcDbEntity
8
0
6
ByLayer
62
256
370
-1
100
AcDbLine
10
-13.7861295757
20
-3.10318887954
11
-14.0658918183
21
-3.28699791148
0
LINE
5
2F6
100
AcDbEntity
8
0
6
ByLayer
62
256
370
-1
100
AcDbLine
10
-12.6373896475
20
5.71378077855
11
-12.4685791161
21
5.5838585856
0
LINE
5
2F7
100
AcDbEntity
8
0
6
ByLayer
62
256
370
-1
100
AcDbLine
10
-13.5476516197
20
-2.96850862868
11
-13.7861295757
21
-3.10318887954
0
LINE
5
2F8
100
AcDbEntity
8
0
6
ByLayer
62
256
370
-1
100
AcDbLine
10
-12.4685791161
20
5.5838585856
11
-12.3420759315
21
5.49931028151
0
LINE
5
2F9
100
AcDbEntity
8
0
6
ByLayer
62
256
370
-1
100
AcDbLine
10
-13.355565543
20
-2.87642328299
11
-13.5476516197
21
-2.96850862868
0
LINE
5
2FA
100
AcDbEntity
8
0
6
ByLayer
62
256
370
-1
100
AcDbLine
10
-12.3420759315
20
5.49931028151
11
-12.262996629
21
5.45369155186
0
LINE
5
2FB
100
AcDbEntity
8
0
6
ByLayer
62
256
370
-1
100
AcDbLine
10
-13.2142775372
20
-2.8199505389
11
-13.355565543
21
-2.87642328299
0
LINE
5
2FC
100
AcDbEntity
8
0
6
ByLayer
62
256
370
-1
100
AcDbLine
10
-12.262996629
20
5.45369155186
11
-12.2357718591
21
5.44009070482
0
LINE
5
2FD
100
AcDbEntity
8
0
6
ByLayer
62
256
370
-1
100
AcDbLine
10
-13.1274563129
20
-2.7917250259
11
-13.2142775372
21
-2.8199505389
0
LINE
5
2FE
100
AcDbEntity
8
0
6
ByLayer
62
256
370
-1
100
AcDbLine
10
-12.2357718591
20
5.44009070482
11
-10.051326376
21
4.46887436432
0
LINE
5
2FF
100
AcDbEntity
8
0
6
ByLayer
62
256
370
-1
100
AcDbLine
10
-13.0980026749
20
-2.78406641332
11
-13.1274563129
21
-2.7917250259
0
ARC
5
300
100
AcDbEntity
8
0
6
ByLayer
62
256
370
-1
100
AcDbCircle
10
9.24593734908e-13
20
-2.99538172044e-13
40
11
100
AcDbArc
50
156.029808768
51
168
0
LINE
5
301
100
AcDbEntity
8
0
6
ByLayer
62
256
370
-1
100
AcDbLine
10
-10.7596236081
20
-2.287028599
11
-13.0980026749
21
-2.78406641332
0
LINE
5
302
100
AcDbEntity
8
0
6
ByLayer
62
256
370
-1
100
AcDbLine
10
-10.7596236081
20
2.287028599
11
-13.0980026749
21
2.78406641332
0
ARC
5
303
100
AcDbEntity
8
0
6
ByLayer
62
256
370
-1
100
AcDbCircle
10
1.01163522004e-12
20
1.06803454969e-13
40
11
100
AcDbArc
50
180.029808768
51
192
0
LINE
5
304
100
AcDbEntity
8
0
6
ByLayer
62
256
370
-1
100
AcDbLine
10
-13.0980026749
20
2.78406641332
11
-13.1280249505
21
2.78904979643
0
LINE
5
305
100
AcDbEntity
8
0
6
ByLayer
62
256
370
-1
100
AcDbLine
10
-13.390618034
20
-0.00696661887148
11
-10.9999985113
21
-0.00572287231409
0
LINE
5
306
100
AcDbEntity
8
0
6
ByLayer
62
256
370
-1
100
AcDbLine
10
-13.1280249505
20
2.78904979643
11
-13.2188204359
21
2.79857788054
0
LINE
5
307
100
AcDbEntity
8
0
6
ByLayer
62
256
370
-1
100
AcDbLine
10
-13.4210210617
20
-0.00561493835631
11
-13.390618034
21
-0.00696661887148
0
LINE
5
308
100
AcDbEntity
8
0
6
ByLayer
62
256
370
-1
100
AcDbLine
10
-13.2188204359
20
2.79857788054
11
-13.3708629863
21
2.80445447093
0
LINE
5
309
100
AcDbEntity
8
0
6
ByLayer
62
256
370
-1
100
AcDbLine
10
-13.5118184082
20
0.00389539488811
11
-13.4210210617
21
-0.00561493835631
0
LINE
5
30A
100
AcDbEntity
8
0
6
ByLayer
62
256
370
-1
100
AcDbLine
10
-13.3708629863
20
2.80445447093
11
-13.5837968335
21
2.79845876765
0
LINE
5
30B
100
AcDbEntity
8
0
6
ByLayer
62
256
370
-1
100
AcDbLine
10
-13.6617737113
20
0.0296806333999
11
-13.5118184082
21
0.00389539488811
0
LINE
5
30C
100
AcDbEntity
8
0
6
ByLayer
62
256
370
-1
100
AcDbLine
10
-13.5837968335
20
2.79845876765
11
-13.85643668
21
2.7724199595
0
LINE
5
30D
100
AcDbEntity
8
0
6
ByLayer
62
256
370
-1
100
AcDbLine
10
-13.868833922
20
0.0797090337666
11
-13.6617737113
21
0.0296806333999
0
LINE
5
30E
100
AcDbEntity
8
0
6
ByLayer
62
256
370
-1
100
AcDbLine
10
-13.85643668
20
2.7724199595
11
-14.1867740746
21
2.71829160873
0
LINE
5
30F
100
AcDbEntity
8
0
6
ByLayer
62
256
370
-1
100
AcDbLine
10
-14.1301448678
20
0.161727904141
11
-13.868833922
21
0.0797090337666
0
LINE
5
310
100
AcDbEntity
8
0
6
ByLayer
62
256
370
-1
100
AcDbLine
10
-14.1867740746
20
2.71829160873
11
-14.5719900358
21
2.62822531934
0
LINE
5
311
100
AcDbEntity
8
0
6
ByLayer
62
256
370
-1
100
AcDbLine
10
-14.4420729161
20
0.28319215923
11
-14.1301448678
21
0.161727904141
0
LINE
5
312
100
AcDbEntity
8
0
6
ByLayer
62
256
370
-1
100
AcDbLine
10
-14.5719900358
20
2.62822531934
11
-15.0084738508
21
2.49464318548
0
LINE
5
313
100
AcDbEntity
8
0
6
ByLayer
62
256
370
-1
100
AcDbLine
10
-14.8002326035
20
0.451194872097
11
-14.4420729161
21
0.28319215923
0
LINE
5
314
100
AcDbEntity
8
0
6
ByLayer
62
256
370
-1
100
AcDbLine
10
-15.0084738508
20
2.49464318548
11
-15.4918479369
21
2.31030852368
0
LINE
5
315
100
AcDbEntity
8
0
6
ByLayer
62
256
370
-1
100
AcDbLine
10
-15.1995200512
20
0.672400300022
11
-14.8002326035
21
0.451194872097
0
LINE
5
316
100
AcDbEntity
8
0
6
ByLayer
62
256
370
-1
100
AcDbLine
10
-15.4918479369
20
2.31030852368
11
-16.0169986139
21
2.0683944024
0
LINE
5
317
100
AcDbEntity
8
0
6
ByLayer
62
256
370
-1
100
AcDbLine
10
-15.6341519561
20
0.952979846634
11
-15.1995200512
21
0.672400300022
0
ARC
5
318
100
AcDbEntity
8
0
6
ByLayer
62
256
370
-1
100
AcDbCircle
10
2.92494917176e-11
20
-3.04944958174e-12
40
16.15
100
AcDbArc
50
172.641692211
51
175.388116557
0
LINE
5
319
100
AcDbEntity
8
0
6
ByLayer
62
256
370
-1
100
AcDbLine
10
-16.097709907
20
1.29855140472
11
-15.6341519561
21
0.952979846634
0
LINE
5
31A
100
AcDbEntity
8
0
6
ByLayer
62
256
370
-1
100
AcDbLine
10
-1.87617
20
1.8
11
1.8762
21
1.8
0
ARC
5
31B
100
AcDbEntity
8
0
6
ByLayer
62
256
370
-1
100
AcDbCircle
10
0
20
0
40
2.6
100
AcDbArc
50
136.18693854
51
223.81306146
0
ARC
5
31C
100
AcDbEntity
8
0
6
ByLayer
62
256
370
-1
100
AcDbCircle
10
0
20
0
40
2.6
100
AcDbArc
50
316.18693854
51
43.8130614604
0
LINE
5
31D
100
AcDbEntity
8
0
6
ByLayer
62
256
370
-1
100
AcDbLine
10
-1.8763
20
-1.8
11
1.8763
21
-1.8
0
ENDSEC
0
SECTION
2
OBJECTS
0
DICTIONARY
5
C
330
0
100
AcDbDictionary
281
1
3
ACAD_GROUP
350
D
0
DICTIONARY
5
D
330
C
100
AcDbDictionary
281
1
0
ENDSEC
0
EOF
