<?xml version="1.0" encoding="UTF-8" standalone="no"?>
<svg
   xmlns:svg="http://www.w3.org/2000/svg"
   xmlns="http://www.w3.org/2000/svg"
   width="300.0"
   height="300.0"

>
    <g transform="scale(13.778379803155373, -13.778379803155373)   translate(7.7968425504678995,-8.890740547879684)" stroke-width="0.25"  fill="none">
       <!-- hidden lines -->
       <g  stroke="rgb(0,0,255)" fill="none" stroke-dasharray="0.25,0.25" >
			<path d="M0.0,0.0 L-7.071067811865476,-4.082482904638631 " />
			<path d="M0.0,0.0 L0.0,8.16496580927726 " />
			<path d="M0.0,0.0 L7.071067811865476,-4.082482904638631 " />

       </g>

       <!-- solid lines -->
       <g  stroke="rgb(255,0,0)" fill="none">
			<path d="M-7.0710678118654755,-4.08248290463863 L-7.0710678118654755,4.08248290463863 " />
			<path d="M0.0,8.16496580927726 L-7.071067811865476,4.0824829046386295 " />
			<path d="M7.0710678118654755,-4.0824829046386295 L-8.881784197001252e-16,-8.16496580927726 " />
			<path d="M0.0,-8.16496580927726 L0.0,0.0 " />
			<path d="M7.0710678118654755,4.08248290463863 L-8.881784197001252e-16,-8.881784197001252e-16 " />
			<path d="M7.0710678118654755,-4.0824829046386295 L7.0710678118654755,4.082482904638631 " />
			<path d="M-7.0710678118654755,-4.08248290463863 L8.881784197001252e-16,-8.164965809277263 " />
			<path d="M0.0,8.16496580927726 L7.071067811865476,4.0824829046386295 " />
			<path d="M-7.0710678118654755,4.0824829046386295 L8.881784197001252e-16,-1.7763568394002505e-15 " />

       </g>
    </g>
    
</svg>
