<?xml version="1.0" encoding="UTF-8" standalone="no"?>
<svg
   xmlns:svg="http://www.w3.org/2000/svg"
   xmlns="http://www.w3.org/2000/svg"
   width="800.0"
   height="240.0"

>
    <g transform="scale(14.537515342506168, -14.537515342506168)   translate(20.12855303189066,-7.566630019531022)" stroke-width="0.06878754563210021"  fill="none">
       <!-- hidden lines -->
       <g  stroke="rgb(160,160,160)" fill="none" stroke-dasharray="0.06878754563210021,0.06878754563210021" >
			<path d="M3.067539658189556,-3.6002611502197146 L6.371043905470618,-5.5192374144192 " />
			<path d="M3.067539658189556,-3.6002611502197146 L3.067539658189556,6.190879106889018 " />
			<path d="M-6.371043905470618,-4.271902842689534 L3.067539658189558,-3.600261150219714 " />

       </g>

       <!-- solid lines -->
       <g  stroke="rgb(0,0,0)" fill="none">
			<path d="M-6.371043905470618,-4.271902842689534 L-3.067539658189556,-6.190879106889019 " />
			<path d="M-3.067539658189556,-6.190879106889018 L-3.067539658189556,3.6002611502197146 " />
			<path d="M-6.371043905470618,5.519237414419199 L-3.067539658189556,3.600261150219714 " />
			<path d="M-6.371043905470618,-4.271902842689534 L-6.371043905470618,5.519237414419199 " />
			<path d="M6.371043905470618,-5.519237414419199 L6.371043905470618,4.271902842689534 " />
			<path d="M3.067539658189556,6.190879106889018 L6.371043905470618,4.271902842689533 " />
			<path d="M-3.067539658189556,-6.190879106889018 L6.37104390547062,-5.519237414419199 " />
			<path d="M-6.371043905470618,5.519237414419199 L3.067539658189558,6.190879106889018 " />
			<path d="M-3.067539658189556,3.6002611502197146 L6.37104390547062,4.271902842689534 " />

       </g>
    </g>
    <g transform="translate(20,210.0)" stroke="rgb(0,0,255)">
        <line x1="30" y1="-30" x2="75" y2="-33" stroke-width="3" stroke="#000000" />
         <text x="80" y="-30" style="stroke:#000000">X </text>

        <line x1="30" y1="-30" x2="30" y2="-75" stroke-width="3" stroke="#000000" />
         <text x="25" y="-85" style="stroke:#000000">Y </text>

        <line x1="30" y1="-30" x2="58" y2="-15" stroke-width="3" stroke="#000000" />
         <text x="65" y="-5" style="stroke:#000000">Z </text>
        <!--
            <line x1="0" y1="0" x2="14.537515342506168" y2="0" stroke-width="3" />
            <text x="0" y="20" style="stroke:#000000">1  mm </text>
        -->
    </g>
</svg>
